<?xml version="1.0" encoding="utf-8"?>
<!-- Generator: Adobe Illustrator 27.5.0, SVG Export Plug-In . SVG Version: 6.00 Build 0)  -->
<svg version="1.1" xmlns="http://www.w3.org/2000/svg" xmlns:xlink="http://www.w3.org/1999/xlink" x="0px" y="0px"
	 viewBox="0 0 750 500" style="fill:transparent;" xml:space="preserve">
<g id="BACKGROUND">
	<g>
		<rect style="fill:transparent;" width="750" height="500"/>
	</g>
</g>
<g id="OBJECTS">
	<g>
		<g>
			<g>
				<g>
					<path style="fill:#D8D8D8;" d="M701.843,275.493c0,105.356-123.835,171.585-276.594,171.585S9.758,452.843,9.758,347.487
						S272.491,65.55,425.249,65.55S701.843,170.137,701.843,275.493z"/>
				</g>
				<g>
					<g>
						<path style="fill:#F2AD97;" d="M380.943,242.227c0,0-2.519,58.976-29.911,120.761l-71.172-66.98l-24.846,74.845
							c0,0,96.094,85.541,120.455,64.45c24.361-21.091,37.569-117.355,31.172-176.102L380.943,242.227z"/>
					</g>
					<g>
						<path style="fill:#B24A47;" d="M182.094,211.054c0,0-109.703,18.97-130.049,97.108
							c-20.346,78.138-1.513,191.164-1.513,191.164h217.815C268.346,499.327,326.454,261.365,182.094,211.054z"/>
					</g>
					<g>
						<g>
							<path style="fill:#422038;" d="M251.327,140.143c6.543-2.778,11.688-8.152,15.584-14.097
								c5.744-8.764,9.166-19.424,7.598-29.784c-1.568-10.361-8.784-20.138-18.864-22.999c-5.959-1.691-13.566-0.187-16.167,5.434
								c-0.375-5.198-3.53-9.406-8.025-12.044c-4.495-2.638-9.911-3.396-15.103-2.94c-7.435,0.652-14.741,3.815-19.834,9.272
								s-7.768,13.262-6.454,20.609c-5.183-2.785-10.93-1.487-16.756-0.658c-5.268,0.75-10.729,1.569-15.177,4.49
								c-5.27,3.461-8.363,9.382-10.619,15.269c2.124-2.206,4.34-4.381,6.996-5.905c2.656-1.524,5.831-2.352,8.817-1.675
								c-4.765,4.331-9.56,9.343-12.709,14.959c-3.15,5.616-4.362,12.721-1.535,18.506c2.738,5.6,8.888,9.416,10.118,15.527
								c0.564,2.799-0.014,5.718,0.415,8.54c1.065,6.99,8.036,11.671,14.932,13.232c10.86,2.459,22.42-0.708,31.92-6.516
								c9.5-5.808,17.231-14.071,24.456-22.543C235.841,141.053,244.349,143.106,251.327,140.143z"/>
						</g>
						<g>
							<g>
								<g>
									<path style="fill:#F2AD97;" d="M252.607,177.128c-8.412,27.865-28.485,33.445-49.266,23.922
										c-20.781-9.523-41.009-22.038-24.434-58.778c12.189-27.019,38.844-48.724,59.625-39.201
										C259.313,112.594,261.174,148.749,252.607,177.128z"/>
								</g>
								<g>
									<path style="fill:#ED8A85;" d="M235.178,156.656c-0.056,0.504-0.117,1.007-0.182,1.509
										c-0.233,1.811-0.525,3.642-1.312,5.278c-0.787,1.636-2.137,3.076-3.926,3.604c-3.066,0.905-6.709-1.384-7.584-4.451
										c-0.703-2.463,0.109-5.007,0.992-7.345c1.763-4.668,3.837-9.214,6.207-13.602c2.129-3.943,5.559-3.853,6.037,1.128
										C235.856,147.415,235.693,152.065,235.178,156.656z"/>
								</g>
								<g>
									<path style="fill:#422038;" d="M216.421,114.932c3.679-1.501,7.531-2.07,9.795,0.717c1.249,1.537,1.19,4.156-0.432,5.286
										c-0.753,0.524-1.694,0.671-2.602,0.79c-4.374,0.575-8.788,0.834-13.199,0.773c-0.571-0.008-1.159-0.024-1.685-0.25
										c-0.526-0.226-0.982-0.712-1.003-1.288c-0.029-0.785,0.7-1.36,1.361-1.777C210.467,118.041,213.385,116.17,216.421,114.932
										z"/>
								</g>
								<g>
									<g>
										<path style="fill:#422038;" d="M251.009,125.131c-1.821-3.193-4.292-5.81-7.502-5.085c-1.771,0.4-3.204,2.332-2.665,4.078
											c0.25,0.811,0.85,1.456,1.44,2.062c2.846,2.92,5.9,5.633,9.13,8.113c0.419,0.321,0.854,0.645,1.362,0.783
											s1.113,0.046,1.452-0.359c0.463-0.553,0.259-1.386,0.015-2.066C253.572,130.792,252.511,127.766,251.009,125.131z"/>
									</g>
								</g>
								<g>
									<path style="fill:#ED6F6D;" d="M214.112,152.092c-0.858,2.558-5.651,3.236-10.704,1.514
										c-5.054-1.722-8.455-5.192-7.597-7.75c0.858-2.558,5.651-3.236,10.704-1.514
										C211.568,146.064,214.97,149.534,214.112,152.092z"/>
								</g>
								<g>
									<path style="fill:#ED6F6D;" d="M258.762,165.046c-0.858,2.558-5.743,3.204-10.911,1.444
										c-5.168-1.761-8.662-5.262-7.804-7.82s5.743-3.205,10.911-1.444C256.126,158.987,259.62,162.488,258.762,165.046z"/>
								</g>
								<g>
									<path style="fill:#F2AD97;" d="M190.992,137.504c-3.657,8.107-11.035,15.242-18.352,11.889
										c-7.317-3.353-11.803-15.926-8.146-24.032s12.554-11.96,19.871-8.607C191.682,120.107,194.649,129.397,190.992,137.504z"/>
								</g>
								<g>
									<g>
										<path style="fill:#422038;" d="M173.624,124.238c3.665-0.688,6.287,3.171,6.437,6.406
											c0.093,1.999-0.418,3.965-1.107,5.826c-0.649,1.752-1.371,3.751-2.751,5.068c-0.544,0.52,0.282,1.344,0.825,0.825
											c1.604-1.531,2.436-3.852,3.166-5.899c0.791-2.22,1.278-4.599,0.919-6.954c-0.559-3.671-3.877-7.133-7.799-6.397
											C172.576,123.251,172.888,124.376,173.624,124.238L173.624,124.238z"/>
									</g>
								</g>
								<g>
									<g>
										<path style="fill:#422038;" d="M180.165,131.867c-3.644-0.021-7.143,2.006-8.966,5.157
											c-0.377,0.651,0.631,1.239,1.008,0.589c1.621-2.803,4.717-4.598,7.958-4.579
											C180.916,133.039,180.917,131.872,180.165,131.867L180.165,131.867z"/>
									</g>
								</g>
								<g>
									<g>
										<path style="fill:#422038;" d="M212.221,181.732c0.934-0.616,1.431-1.755,1.313-2.863c-0.06-0.56-0.237-1.093-0.584-1.542
											c-0.403-0.523-0.977-0.864-1.6-1.064c-0.715-0.23-1.485-0.266-2.23-0.291c-0.751-0.026-0.75,1.141,0,1.167
											c0.676,0.023,1.315,0.048,1.954,0.26c0.256,0.085,0.53,0.223,0.738,0.406c0.222,0.195,0.288,0.292,0.421,0.577
											c0.017,0.037,0.016,0.034-0.004-0.011c0.014,0.035,0.027,0.07,0.039,0.105c0.021,0.062,0.04,0.125,0.056,0.188
											c0.016,0.064,0.028,0.128,0.041,0.193c0.011,0.07,0.012,0.074,0.003,0.013c0.003,0.028,0.006,0.056,0.008,0.085
											c0.006,0.133,0.011,0.264,0.002,0.397c-0.002,0.024-0.027,0.213-0.008,0.099c-0.011,0.065-0.023,0.13-0.039,0.195
											c-0.07,0.296-0.102,0.38-0.264,0.636c-0.012,0.018-0.119,0.168-0.055,0.086c-0.04,0.051-0.084,0.1-0.129,0.146
											c-0.045,0.047-0.093,0.092-0.142,0.134c-0.053,0.043-0.057,0.048-0.014,0.013c-0.031,0.022-0.062,0.043-0.094,0.064
											c-0.263,0.173-0.375,0.516-0.209,0.798C211.575,181.784,211.957,181.906,212.221,181.732L212.221,181.732z"/>
									</g>
								</g>
								<g>
									<g>
										<path style="fill:#422038;" d="M210.711,130.144c-2.654,3.176-2.971,8.101-0.246,11.345
											c2.684,3.197,7.569,3.865,10.942,1.401c2.156-1.575,3.668-3.92,4.542-6.417c0.249-0.71-0.878-1.016-1.125-0.31
											c-0.866,2.474-2.492,4.921-4.812,6.244c-1.938,1.105-4.31,1.088-6.304,0.125c-4.36-2.104-5.191-7.951-2.172-11.564
											C212.015,130.397,211.193,129.567,210.711,130.144L210.711,130.144z"/>
									</g>
								</g>
								<g>
									<g>
										<path style="fill:#422038;" d="M241.047,141.523c-1.509,3.07-0.25,7.032,2.742,8.696c3.364,1.871,7.623,0.684,9.894-2.298
											c1.27-1.667,1.909-3.745,1.914-5.831c0.002-0.751-1.165-0.752-1.167,0c-0.008,4.056-2.929,7.947-7.23,7.859
											c-1.948-0.039-3.789-0.972-4.805-2.66c-0.932-1.549-1.151-3.531-0.341-5.177
											C242.385,141.44,241.379,140.848,241.047,141.523L241.047,141.523z"/>
									</g>
								</g>
								<g>
									<path style="fill:#F2AD97;" d="M175.482,147.889l-12.288,75.645c0,0,15.713,5.212,29.363,0.33l1.994-46.174
										L175.482,147.889z"/>
								</g>
								<g>
									<g>
										<path style="fill:#422038;" d="M194.619,195.814c-11.031-5.997-18.076-18.176-17.899-30.716
											c0.011-0.751-1.156-0.751-1.167,0c-0.182,12.933,7.097,25.536,18.477,31.723
											C194.69,197.181,195.28,196.173,194.619,195.814L194.619,195.814z"/>
									</g>
								</g>
								<g>
									<path style="fill:#FFFFFF;" d="M211.536,161.13c2.049-2.176,4.345,1.959,8.392,5.769c4.047,3.81,8.313,5.854,6.264,8.029
										c-2.049,2.176-7.722,1.628-11.769-2.182C210.376,168.936,209.488,163.306,211.536,161.13z"/>
								</g>
							</g>
						</g>
						<g>
							<g>
								<path style="fill:#6D4F65;" d="M258.769,119.455c3.625-6.459,5.323-13.936,4.739-21.329
									c-0.502-6.345-2.644-13.818-8.789-16.897c-3.023-1.514-6.579-1.772-9.616-0.171c-0.641,0.338-0.073,1.309,0.568,0.971
									c3.519-1.855,7.89-0.812,10.807,1.713c3.014,2.609,4.559,6.509,5.339,10.327c1.72,8.413,0.17,17.353-4.018,24.817
									C257.443,119.519,258.415,120.087,258.769,119.455L258.769,119.455z"/>
							</g>
						</g>
						<g>
							<g>
								<path style="fill:#6D4F65;" d="M257.975,110.408c0.451-7.474,0.556-16.588-6.446-21.263
									c-0.604-0.403-1.167,0.571-0.568,0.971c6.615,4.418,6.311,13.289,5.889,20.292
									C256.807,111.131,257.932,111.128,257.975,110.408L257.975,110.408z"/>
							</g>
						</g>
						<g>
							<g>
								<path style="fill:#6D4F65;" d="M204.433,107.345c-4.468-5.97-6.117-13.873-4.127-21.097
									c1.854-6.731,6.686-12.412,12.942-15.462c0.651-0.317,0.081-1.287-0.568-0.971c-6.506,3.173-11.534,9.142-13.459,16.135
									c-2.062,7.488-0.398,15.765,4.241,21.963C203.89,108.486,204.867,107.926,204.433,107.345L204.433,107.345z"/>
							</g>
						</g>
						<g>
							<g>
								<path style="fill:#6D4F65;" d="M208.526,96.774c-0.809-4.848,0.514-9.967,3.578-13.812c0.447-0.561-0.344-1.361-0.795-0.795
									c-3.338,4.19-4.75,9.621-3.867,14.907C207.561,97.785,208.645,97.483,208.526,96.774L208.526,96.774z"/>
							</g>
						</g>
						<g>
							<g>
								<path style="fill:#6D4F65;" d="M192.38,112.357c-0.866-4.237-3.516-7.841-7.248-10.008
									c-3.832-2.226-8.316-2.944-12.632-3.604c-0.708-0.108-1.013,0.975-0.299,1.085c4.02,0.615,8.198,1.255,11.83,3.194
									c3.761,2.008,6.408,5.444,7.264,9.633C191.44,113.365,192.524,113.065,192.38,112.357L192.38,112.357z"/>
							</g>
						</g>
						<g>
							<g>
								<path style="fill:#6D4F65;" d="M182.945,109.364c-9.121-3.979-20.674-0.728-25.871,7.913
									c-2.572,4.277-3.469,9.474-2.676,14.384c0.849,5.253,3.893,9.102,7.189,13.082c1.848,2.233,3.781,4.617,4.586,7.456
									c0.987,3.48-0.724,6.684-0.683,10.153c0.009,0.723,1.133,0.725,1.125,0c-0.034-2.818,1.24-5.477,1.023-8.309
									c-0.165-2.152-1.013-4.155-2.152-5.967c-2.565-4.083-6.42-7.268-8.483-11.68c-4.389-9.39-0.406-21.191,8.984-25.656
									c5.093-2.422,11.2-2.669,16.39-0.405C183.034,110.622,183.607,109.653,182.945,109.364L182.945,109.364z"/>
							</g>
						</g>
					</g>
					<g>
						<g>
							<g>
								<g>
									<g>
										<polygon style="fill:#46B2A5;" points="283.695,371.826 244.88,325.1 336.155,281.794 375.47,329.121 										"/>
									</g>
									<g>
										<path style="fill:#1F8979;" d="M286.065,364.026l-30.824-37.105l78.629-37.224l31.155,37.505L286.065,364.026z
											 M257.334,327.383l29.094,35.023l76.498-35.676l-29.415-35.411L257.334,327.383z"/>
									</g>
									<g>
										<g>
											<g>
												<path style="fill:#1F8979;" d="M355.419,316.665c0,0-12.204,5.842-5.062,16.652l13.129-6.123L355.419,316.665z"/>
											</g>
											<g>
												<path style="fill:#1F8979;" d="M342.248,300.809c0,0-12.333,5.687-22.119-3.881l13.074-6.189L342.248,300.809z"/>
											</g>
										</g>
										<g>
											<g>
												<path style="fill:#1F8979;" d="M277.781,353.026c0,0,12.354-5.661,22.084,3.839l-13.129,6.123L277.781,353.026z"/>
											</g>
											<g>
												<path style="fill:#1F8979;" d="M264.752,337.341c0,0,12.182-5.868,5.097-16.61l-13.074,6.189L264.752,337.341z"/>
											</g>
										</g>
									</g>
									<g>
										<path style="fill:#1F8979;" d="M320.434,339.46c-9.506,4.444-21.851,2.463-27.572-4.424
											c-5.721-6.887-2.675-16.099,6.804-20.576c9.479-4.477,21.823-2.496,27.572,4.424
											C332.987,325.804,329.94,335.017,320.434,339.46z"/>
									</g>
									<g>
										<g>
											<path style="fill:#46B2A5;" d="M304.051,326.504c0.533,0.642,1.036,0.852,1.509,0.629
												c0.356-0.168,0.495-0.572,0.416-1.213c-0.042-0.284-0.097-0.604-0.167-0.96c-0.069-0.356-0.121-0.731-0.157-1.124
												c-0.175-2.079,0.784-3.611,2.877-4.597c1.131-0.533,2.159-0.821,3.084-0.863c2.566-0.117,5.053,0.956,7.462,3.221
												l2.049-0.843l1.226,1.476l-1.949,0.808c1.058,1.299,1.974,2.674,2.748,4.125c0.167,0.306,0.269,0.512,0.305,0.621
												l-5.482,2.57c-0.982-1.923-1.805-3.282-2.467-4.079c-0.251-0.302-0.498-0.499-0.741-0.59
												c-0.243-0.091-0.426-0.108-0.55-0.05c-0.186,0.087-0.292,0.233-0.317,0.437c-0.025,0.203,0.037,0.556,0.184,1.058
												c0.147,0.502,0.289,0.998,0.426,1.487c0.466,1.664,0.383,2.979-0.248,3.944c-0.513,0.811-1.36,1.492-2.542,2.041
												c-1.183,0.549-2.271,0.852-3.264,0.908c-0.994,0.056-1.971-0.065-2.93-0.364c-1.93-0.61-3.702-1.867-5.318-3.774
												l-2.018,0.842l-1.23-1.481l2.064-0.864c-1.1-1.48-1.837-2.757-2.211-3.829c-0.162-0.468-0.232-0.845-0.212-1.131
												l5.498-2.59c0.013,0.029,0.043,0.122,0.087,0.281c0.287,0.865,0.583,1.629,0.887,2.294
												C303.375,325.561,303.702,326.097,304.051,326.504z"/>
										</g>
									</g>
								</g>
								<g>
									<g>
										<polygon style="fill:#46B2A5;" points="290.223,336.892 231.821,320.184 282.791,232.957 341.944,249.88 										"/>
									</g>
									<g>
										<path style="fill:#1F8979;" d="M287.782,329.115l-46.379-13.269l43.955-75.075l46.877,13.411L287.782,329.115z
											 M243.393,315.049l43.776,12.522l43.067-72.595l-44.259-12.662L243.393,315.049z"/>
									</g>
									<g>
										<g>
											<g>
												<path style="fill:#1F8979;" d="M318.361,250.896c0,0-6.786,11.706,5.208,16.607l7.391-12.459L318.361,250.896z"/>
											</g>
											<g>
												<path style="fill:#1F8979;" d="M298.543,245.227c0,0-6.979,11.65-20.456,9.265l7.309-12.483L298.543,245.227z"/>
											</g>
										</g>
										<g>
											<g>
												<path style="fill:#1F8979;" d="M274.739,324.699c0,0,7.012-11.641,20.404-9.281l-7.391,12.459L274.739,324.699z"/>
											</g>
											<g>
												<path style="fill:#1F8979;" d="M255.135,319.091c0,0,6.753-11.715-5.155-16.592l-7.308,12.483L255.135,319.091z"/>
											</g>
										</g>
									</g>
									<g>
										<path style="fill:#1F8979;" d="M302.318,289.448c-5.346,9.03-16.658,14.354-25.266,11.891
											c-8.608-2.463-11.286-11.789-5.981-20.831c5.305-9.042,16.617-14.366,25.266-11.891
											C304.986,271.092,307.664,280.418,302.318,289.448z"/>
									</g>
									<g>
										<g>
											<path style="fill:#46B2A5;" d="M281.482,287.983c0.802,0.229,1.336,0.119,1.601-0.331c0.2-0.339,0.086-0.751-0.341-1.236
												c-0.194-0.211-0.421-0.444-0.678-0.699c-0.257-0.255-0.512-0.535-0.764-0.84c-1.317-1.619-1.388-3.425-0.216-5.419
												c0.634-1.078,1.321-1.895,2.06-2.451c2.053-1.544,4.712-2.059,7.979-1.547l1.217-1.851l1.845,0.528l-1.154,1.766
												c1.606,0.477,3.138,1.096,4.595,1.858c0.31,0.158,0.511,0.272,0.602,0.34l-3.079,5.214
												c-1.895-1.034-3.341-1.693-4.337-1.978c-0.377-0.108-0.692-0.131-0.944-0.069c-0.252,0.061-0.413,0.151-0.482,0.269
												c-0.104,0.177-0.11,0.357-0.015,0.539c0.094,0.182,0.344,0.439,0.749,0.77c0.405,0.332,0.802,0.661,1.19,0.988
												c1.323,1.112,1.996,2.245,2.019,3.398c0.034,0.959-0.282,1.999-0.948,3.119c-0.667,1.12-1.395,1.984-2.184,2.59
												c-0.789,0.607-1.664,1.057-2.625,1.352c-1.938,0.584-4.111,0.545-6.52-0.119l-1.193,1.833l-1.851-0.529l1.218-1.877
												c-1.743-0.602-3.071-1.241-3.985-1.916c-0.398-0.295-0.668-0.567-0.813-0.815l3.081-5.239
												c0.028,0.017,0.104,0.077,0.23,0.183c0.725,0.552,1.4,1.017,2.026,1.394
												C280.393,287.586,280.965,287.844,281.482,287.983z"/>
										</g>
									</g>
								</g>
								<g>
									<g>
										<polygon style="fill:#46B2A5;" points="270.786,336.949 212.293,353.337 209.972,252.336 269.217,235.738 										"/>
									</g>
									<g>
										<path style="fill:#1F8979;" d="M218.18,344.618l-1.924-86.975l46.95-13.153l1.424,87.114L218.18,344.618z
											 M217.592,258.634l1.864,84.262l43.844-12.283l-1.38-84.397L217.592,258.634z"/>
									</g>
									<g>
										<g>
											<g>
												<path style="fill:#1F8979;" d="M249.667,248.966c0,0,0.358,13.525,13.141,11.413l-0.237-14.485L249.667,248.966z"/>
											</g>
											<g>
												<path style="fill:#1F8979;" d="M229.819,254.527c0,0,0.164,13.58-12.563,18.614l-0.32-14.461L229.819,254.527z"/>
											</g>
										</g>
										<g>
											<g>
												<path style="fill:#1F8979;" d="M251.209,334.683c0,0-0.131-13.589,12.51-18.599l0.237,14.484L251.209,334.683z"/>
											</g>
											<g>
												<path style="fill:#1F8979;" d="M231.574,340.184c0,0-0.391-13.516-13.088-11.427l0.32,14.461L231.574,340.184z"/>
											</g>
										</g>
									</g>
									<g>
										<path style="fill:#1F8979;" d="M256.215,290.206c0.181,10.492-6.661,20.956-15.283,23.371
											c-8.621,2.415-15.791-4.123-16.013-14.604c-0.222-10.481,6.62-20.944,15.283-23.371
											C248.865,273.175,256.034,279.714,256.215,290.206z"/>
									</g>
									<g>
										<g>
											<path style="fill:#46B2A5;" d="M237.704,299.881c0.803-0.225,1.2-0.599,1.19-1.121c-0.008-0.394-0.32-0.685-0.938-0.874
												c-0.276-0.078-0.591-0.158-0.944-0.239c-0.353-0.082-0.717-0.187-1.091-0.315c-1.97-0.688-2.978-2.189-3.024-4.501
												c-0.025-1.25,0.131-2.306,0.47-3.167c0.939-2.391,2.933-4.224,5.983-5.5l0.066-2.215l1.848-0.518l-0.057,2.109
												c1.618-0.436,3.247-0.712,4.887-0.827c0.347-0.028,0.577-0.036,0.691-0.026l0.111,6.054
												c-2.156,0.113-3.733,0.31-4.73,0.589c-0.378,0.106-0.658,0.251-0.841,0.436c-0.182,0.184-0.272,0.345-0.27,0.482
												c0.004,0.206,0.094,0.362,0.27,0.467c0.176,0.105,0.523,0.193,1.042,0.263c0.518,0.071,1.029,0.143,1.532,0.217
												c1.71,0.253,2.876,0.865,3.5,1.835c0.532,0.799,0.807,1.85,0.827,3.153c0.019,1.304-0.148,2.421-0.502,3.351
												c-0.354,0.931-0.863,1.773-1.527,2.527c-1.344,1.513-3.215,2.619-5.614,3.317l-0.055,2.186l-1.854,0.519l0.053-2.237
												c-1.8,0.401-3.266,0.553-4.398,0.457c-0.493-0.043-0.866-0.132-1.119-0.268l-0.123-6.076
												c0.032,0,0.129,0.011,0.292,0.035c0.907,0.091,1.725,0.132,2.456,0.125C236.568,300.114,237.19,300.034,237.704,299.881z
												"/>
										</g>
									</g>
								</g>
								<g>
									<g>
										<polygon style="fill:#46B2A5;" points="262.805,332.533 226.221,381.026 163.145,302.108 200.2,252.992 										"/>
									</g>
									<g>
										<path style="fill:#1F8979;" d="M225.617,370.524l-0.528-0.661l-53.729-67.342l29.365-38.924l53.944,68.418
											L225.617,370.524z M173.024,302.497l52.564,65.884l27.422-36.349l-52.262-66.283L173.024,302.497z"/>
									</g>
									<g>
										<g>
											<g>
												<path style="fill:#1F8979;" d="M192.671,275.364c0,0,8.484,10.54,17.369,1.11l-8.969-11.376L192.671,275.364z"/>
											</g>
											<g>
												<path style="fill:#1F8979;" d="M180.257,291.819c0,0,8.363,10.701,1.293,22.42l-9.021-11.307L180.257,291.819z"/>
											</g>
										</g>
										<g>
											<g>
												<path style="fill:#1F8979;" d="M245.861,342.599c0,0-8.342-10.728-1.326-22.376l8.969,11.376L245.861,342.599z"/>
											</g>
											<g>
												<path style="fill:#1F8979;" d="M233.581,358.877c0,0-8.505-10.513-17.337-1.154l9.021,11.307L233.581,358.877z"/>
											</g>
										</g>
									</g>
									<g>
										<path style="fill:#1F8979;" d="M222.88,304.192c6.505,8.235,7.406,20.704,2.014,27.852
											c-5.392,7.147-15.057,6.294-21.588-1.906c-6.531-8.2-7.432-20.67-2.014-27.852
											C206.71,295.104,216.375,295.957,222.88,304.192z"/>
									</g>
									<g>
										<g>
											<path style="fill:#46B2A5;" d="M214.024,323.109c0.502-0.666,0.591-1.204,0.266-1.613
												c-0.245-0.308-0.67-0.35-1.276-0.126c-0.267,0.105-0.566,0.233-0.896,0.382c-0.331,0.148-0.683,0.286-1.058,0.411
												c-1.984,0.647-3.695,0.064-5.134-1.746c-0.778-0.979-1.294-1.914-1.547-2.804c-0.702-2.471-0.228-5.138,1.424-8.002
												l-1.29-1.802l1.156-1.532l1.233,1.711c1.022-1.328,2.151-2.534,3.385-3.62c0.259-0.233,0.437-0.379,0.534-0.439
												l3.758,4.747c-1.646,1.397-2.781,2.509-3.405,3.336c-0.236,0.313-0.371,0.599-0.404,0.856
												c-0.033,0.257-0.007,0.44,0.078,0.547c0.128,0.161,0.294,0.231,0.498,0.208c0.204-0.023,0.533-0.163,0.988-0.422
												c0.455-0.258,0.905-0.51,1.35-0.756c1.513-0.835,2.812-1.056,3.896-0.663c0.907,0.313,1.764,0.982,2.569,2.006
												c0.806,1.025,1.35,2.015,1.632,2.969c0.283,0.955,0.388,1.933,0.318,2.936c-0.151,2.018-0.969,4.032-2.454,6.041
												l1.282,1.772l-1.159,1.537l-1.314-1.811c-1.188,1.41-2.262,2.42-3.22,3.03c-0.418,0.265-0.769,0.42-1.053,0.465
												l-3.781-4.758c0.025-0.02,0.109-0.07,0.253-0.149c0.776-0.478,1.452-0.941,2.029-1.389
												C213.261,323.982,213.707,323.542,214.024,323.109z"/>
										</g>
									</g>
								</g>
							</g>
							<g>
								<path style="fill:#F2AD97;" d="M215.107,437.279c2.597-2.38,14.794-16.507,17.627-18.602
									c13.301-9.833,24.784-22.117,33.7-36.049c3.251-5.079,5.235-10.594,6.814-16.414c4.043-14.9,8.086-29.8,12.13-44.7
									c0.532-1.96,1.037-4.166,0.025-5.928c-1.265-2.203-4.466-2.608-6.759-1.516c-2.293,1.092-3.864,3.256-5.252,5.383
									c-4.826,7.396-6.692,15.908-9.436,24.303c2.571-10.296,2.191-21.314,2.797-31.909c0.223-3.899-0.469-8.92-4.253-9.887
									c-1.354-0.346-2.811-0.018-4.056,0.619c-4.921,2.519-6.251,8.837-6.788,14.339c-0.984,10.092-1.188,20.26-0.608,30.384
									c-1.311-8.426-2.622-16.853-3.933-25.279c-0.458-2.943-1.722-6.641-4.7-6.701c-2.539-0.052-4.125,2.724-4.795,5.174
									c-3.512,12.848,2.216,26.238,3.089,39.529c-1.864-6.39-4.592-12.528-8.085-18.195c-1.049-1.701-2.309-3.471-4.214-4.075
									c-3.392-1.076-6.838,2.402-7.142,5.948c-0.304,3.545,1.495,6.893,3.237,9.996c3.224,5.739,7.222,10.012,10.446,15.752
									c-7.581,11.962-21.748,24.063-30.887,34.882C207.478,412.221,209.013,431.22,215.107,437.279z"/>
							</g>
							<g>
								<g>
									<path style="fill:#422038;" d="M222.571,340.658c0.803,1.666,2.25,3.281,4.164,3.583c1.756,0.277,3.65-0.569,4.271-2.302
										c0.254-0.708-0.874-1.013-1.125-0.31c-0.431,1.203-1.956,1.708-3.12,1.432c-1.502-0.355-2.542-1.664-3.182-2.992
										C223.252,339.393,222.246,339.984,222.571,340.658L222.571,340.658z"/>
								</g>
							</g>
							<g>
								<g>
									<path style="fill:#422038;" d="M240.1,315.985c0.04,1.078,0.149,2.151,0.325,3.215c0.148,0.895,0.322,1.821,0.782,2.616
										c0.451,0.779,1.189,1.329,2.07,1.52c0.922,0.2,1.86,0.078,2.782-0.061c0.312-0.047,0.484-0.44,0.408-0.718
										c-0.092-0.334-0.405-0.455-0.718-0.407c-0.719,0.108-1.493,0.216-2.211,0.05c-0.692-0.161-1.164-0.598-1.46-1.234
										c-0.317-0.681-0.431-1.467-0.548-2.202c-0.147-0.919-0.228-1.848-0.263-2.778
										C241.239,315.236,240.072,315.233,240.1,315.985L240.1,315.985z"/>
								</g>
							</g>
							<g>
								<g>
									<path style="fill:#422038;" d="M259.17,303.175c-0.743,2.217-1.486,4.829-0.055,6.943c0.546,0.807,1.352,1.477,2.329,1.665
										c1.166,0.224,2.385-0.434,3.51-0.031c0.708,0.254,1.013-0.873,0.31-1.125c-1.042-0.374-2.061,0.044-3.116,0.054
										c-0.842,0.008-1.563-0.465-2.026-1.152c-1.243-1.843-0.47-4.128,0.172-6.044
										C260.534,302.772,259.408,302.466,259.17,303.175L259.17,303.175z"/>
								</g>
							</g>
							<g>
								<g>
									<path style="fill:#422038;" d="M281.409,314.966c-0.699,1.353-1.398,2.706-2.096,4.059
										c-0.576,1.115-1.29,2.257-1.462,3.523c-0.159,1.174,0.331,2.226,1.399,2.775c1.177,0.605,2.582,0.843,3.88,1.014
										c0.742,0.098,0.735-1.07,0-1.167c-1.066-0.141-2.238-0.358-3.217-0.819c-1.052-0.495-1.049-1.461-0.705-2.445
										c0.369-1.054,0.983-2.041,1.494-3.03c0.572-1.107,1.143-2.214,1.715-3.321
										C282.761,314.888,281.755,314.298,281.409,314.966L281.409,314.966z"/>
								</g>
							</g>
							<g>
								<g>
									<path style="fill:#422038;" d="M241.226,367.05c-0.304-0.904,0.073-1.835,0.874-2.355c1.017-0.66,2.375-0.374,3.407,0.071
										c0.315,0.136,0.779,0.06,0.857-0.349c0.326-1.693,0.772-3.549,2.069-4.782c1.212-1.152,3.261-1.514,4.49-0.202
										c0.307,0.328,0.855,0.151,0.975-0.257c0.499-1.698,1.67-3.399,3.477-3.87c1.65-0.43,3.583,0.321,4.213,1.971
										c0.154,0.403,0.638,0.585,0.975,0.257c2.815-2.738,7.207-0.354,6.7,3.445c-0.099,0.742,1.069,0.735,1.167,0
										c0.651-4.88-5.224-7.643-8.692-4.27c0.325,0.086,0.65,0.172,0.975,0.257c-0.775-2.03-2.875-3.189-5.024-2.907
										c-2.506,0.329-4.241,2.509-4.916,4.806c0.325-0.086,0.65-0.172,0.975-0.257c-1.363-1.456-3.571-1.478-5.231-0.499
										c-2.086,1.229-2.85,3.77-3.278,5.998c0.286-0.116,0.571-0.232,0.857-0.349c-1.541-0.664-3.412-0.976-4.848,0.116
										c-1.074,0.816-1.583,2.193-1.148,3.486C240.339,368.068,241.467,367.764,241.226,367.05L241.226,367.05z"/>
								</g>
							</g>
							<g>
								<g>
									<path style="fill:#422038;" d="M237.894,354.523c1.098,2.047,2.001,4.186,2.702,6.401c0.226,0.713,1.353,0.408,1.125-0.31
										c-0.731-2.308-1.676-4.546-2.82-6.68C238.546,353.272,237.539,353.861,237.894,354.523L237.894,354.523z"/>
								</g>
							</g>
							<g>
								<g>
									<path style="fill:#422038;" d="M248.59,334.783c1.149,5.841,2.173,11.706,3.071,17.591c0.113,0.74,1.238,0.426,1.125-0.31
										c-0.899-5.885-1.923-11.75-3.071-17.591C249.571,333.737,248.446,334.048,248.59,334.783L248.59,334.783z"/>
								</g>
							</g>
							<g>
								<g>
									<path style="fill:#422038;" d="M265.805,331.356c-0.566,6.132-1.661,12.198-3.262,18.145
										c-0.195,0.726,0.93,1.036,1.125,0.31c1.627-6.047,2.727-12.219,3.303-18.455
										C267.041,330.609,265.874,330.613,265.805,331.356L265.805,331.356z"/>
								</g>
							</g>
						</g>
						<g>
							<path style="fill:#F2AD97;" d="M218.486,388.989c0,0-11.535-21.22-13.992-35.146c0,0,19.374,23.277,23.92,27.183
								C232.961,384.932,218.486,388.989,218.486,388.989z"/>
						</g>
					</g>
					<g>
						<g>
							<path style="fill:#F2AD97;" d="M406.642,260.603c-1.53-47.305-41.046-64.686-53.096-66.593
								c-12.05-1.907-24.638-4.256-36.223-0.433c-3.629,1.198-7.553,3.984-7.913,7.486c-0.09,0.878,0.767,1.565,1.619,1.335
								c7.708-2.082,16.072-1.69,23.544,1.133c-10.454-2.903-22.515,1.405-28.763,10.275c-1.188,1.686-2.219,3.674-1.64,5.767
								c0.266,0.962,0.943,1.793,1.87,2.165c1.535,0.617,2.646-0.262,3.69-1.056c6.517-4.962,14.254-8.309,22.333-9.66
								c-7.164,0.938-14.311,3.734-19.23,9.026c-5.136,5.527-7.378,14.062-4.072,20.918c0.247,0.512,0.617,0.968,1.092,1.279
								c2.198,1.438,4.341-0.94,5.47-3.014c2.168-3.984,4.035-8.172,6.813-11.757c2.777-3.586,6.679-6.59,11.188-7.08
								c0.876-0.095,2.125,0.321,1.902,1.174c-1.519,1.265-3.009,3.047-4.633,4.174c-6.644,4.612-10.609,12.83-10.085,20.9
								c0.143,2.199,0.656,4.509,2.385,5.982c0.887,0.756,2.06,1.158,3.214,0.994c1.921-0.273,2.666-1.848,3.297-3.329
								c2.774-6.514,5.09-13.441,9.826-18.703c4.736-5.262,12.817-8.374,19.037-4.993c0.894,2.602-0.624,5.167-2.146,7.459
								c-2.943,4.433-6.994,8.124-11.681,10.643c-1.678,0.902-3.584,2.267-4.89,3.654c-2.129,2.261-3.789,6.211-0.805,8.024
								c0.763,0.463,1.671,0.643,2.561,0.576c9.459-0.711,18.519-5.509,24.466-12.889c1.409-1.748,2.725-3.699,4.721-4.727
								c3.469-1.786,7.914-0.068,10.451,2.896c2.537,2.964,3.618,6.87,4.628,10.639c1.213,4.527,2.426,9.055,3.639,13.582
								L406.642,260.603"/>
						</g>
						<g>
							<g>
								<path style="fill:#422038;" d="M338.01,254.808c1.087-0.618,2.377-1.332,3.678-1.146c0.849,0.122,1.854,0.725,1.946,1.661
									c0.031,0.314,0.246,0.583,0.583,0.583c0.292,0,0.614-0.268,0.583-0.583c-0.139-1.421-1.298-2.469-2.661-2.759
									c-1.675-0.355-3.3,0.43-4.718,1.236C336.769,254.172,337.356,255.18,338.01,254.808L338.01,254.808z"/>
							</g>
						</g>
						<g>
							<g>
								<path style="fill:#422038;" d="M321.353,247.534c0.991-0.91,2.608-0.346,3.451,0.555c1.172,1.253,1.277,3.227,1.394,4.843
									c0.023,0.314,0.252,0.583,0.583,0.583c0.298,0,0.606-0.267,0.583-0.583c-0.119-1.643-0.263-3.371-1.114-4.823
									c-0.735-1.254-2.056-2.126-3.524-2.192c-0.815-0.036-1.598,0.241-2.198,0.792
									C319.974,247.218,320.801,248.042,321.353,247.534L321.353,247.534z"/>
							</g>
						</g>
						<g>
							<g>
								<path style="fill:#422038;" d="M307.928,233.963c0.559-0.356,1.256-0.217,1.771,0.164c0.621,0.46,0.935,1.247,1.143,1.963
									c0.522,1.795,0.654,3.693,0.494,5.55c-0.064,0.748,1.103,0.744,1.167,0c0.185-2.163,0.034-4.576-0.795-6.606
									c-0.353-0.866-0.908-1.699-1.772-2.121c-0.825-0.403-1.801-0.464-2.597,0.042
									C306.707,233.357,307.292,234.367,307.928,233.963L307.928,233.963z"/>
							</g>
						</g>
						<g>
							<g>
								<path style="fill:#422038;" d="M306.436,219.779c2.541-2.079,3.541-5.807,2.388-8.88c-0.261-0.697-1.39-0.395-1.125,0.31
									c1.022,2.725,0.163,5.902-2.088,7.745C305.03,219.43,305.86,220.251,306.436,219.779L306.436,219.779z"/>
							</g>
						</g>
						<g>
							<g>
								<path style="fill:#422038;" d="M311.663,199.232c2.737,0.244,5.296-2.073,5.461-4.78c0.019-0.315-0.282-0.584-0.583-0.584
									c-0.332,0-0.564,0.268-0.583,0.584c-0.127,2.087-2.209,3.799-4.294,3.613c-0.314-0.028-0.583,0.288-0.583,0.583
									C311.079,198.988,311.347,199.204,311.663,199.232L311.663,199.232z"/>
							</g>
						</g>
						<g>
							<g>
								<path style="fill:#422038;" d="M316.466,216.582c6.994-5.99,16.46-8.79,25.587-7.535c0.734,0.101,1.052-1.023,0.31-1.125
									c-9.577-1.317-19.377,1.544-26.723,7.835C315.069,216.246,315.898,217.068,316.466,216.582L316.466,216.582z"/>
							</g>
						</g>
						<g>
							<g>
								<path style="fill:#422038;" d="M348.167,196.408c-3.008,1.057-2.43,5.297,0.759,5.495c-0.137-0.332-0.275-0.664-0.413-0.996
									c-2.744,2.593-1.707,6.992,1.825,8.2c-0.086-0.325-0.172-0.65-0.257-0.975c-2.027,1.621-2.079,5.036-0.09,6.72
									c0.214,0.181,0.464,0.301,0.684,0.469c0.566,0.433,0.476,0.655,0.538,1.349c0.059,0.658,0.268,1.24,0.662,1.771
									c0.858,1.157,2.26,1.662,3.654,1.381c0.736-0.148,0.424-1.273-0.31-1.125c-1.426,0.288-2.73-0.779-2.843-2.198
									c-0.085-1.069-0.215-1.564-1.112-2.186c-1.811-1.255-2.197-3.886-0.358-5.356c0.369-0.295,0.115-0.848-0.257-0.975
									c-2.735-0.936-3.381-4.294-1.31-6.25c0.389-0.367,0.069-0.966-0.413-0.996c-1.852-0.115-2.219-2.581-0.448-3.203
									C349.181,197.286,348.879,196.158,348.167,196.408L348.167,196.408z"/>
							</g>
						</g>
					</g>
					<g>
						<path style="fill:#F2AD97;" d="M86.753,299.554c19.05,44.327,37.515,91.904,52.965,137.611
							c27.121-12.105,52.915-27.181,76.77-44.873c6.676,7.419,12.334,15.902,19.01,23.321
							c-13.814,13.546-25.751,28.444-39.565,41.989c-10.044,9.848-20.275,19.836-32.705,26.42
							c-12.431,6.584-27.597,9.402-40.669,4.205c-8.291-3.296-15.078-9.492-21.19-15.993
							c-22.831-24.287-39.118-73.11-56.091-109.247c9.144-29.003,14.359-23.769,29.998-49.849
							C79.53,306.044,83.381,307.108,86.753,299.554z"/>
					</g>
					<g>
						<g>
							<path style="fill:#422038;" d="M132.719,452.322c2.936-5.575,5.872-11.15,8.808-16.725c0.35-0.664-0.657-1.254-1.008-0.589
								c-2.936,5.575-5.872,11.15-8.808,16.725C131.362,452.397,132.368,452.987,132.719,452.322L132.719,452.322z"/>
						</g>
					</g>
					<g>
						<path style="fill:#B24A47;" d="M91.377,250.896c0,0-66.468,34.759-58.17,157.124c0,0,80.843-13.293,103.411-48.058
							L91.377,250.896z"/>
					</g>
					<g>
						<g>
							<path style="fill:#FFFFFF;" d="M101.427,260.585c7.647,14.39,14.52,29.186,20.556,44.323
								c5.996,15.038,11.179,30.401,15.512,46c0.645,2.324,1.864,5.051,0.176,7.181c-1.428,1.802-3.307,3.346-4.947,4.957
								c-3.515,3.454-7.031,6.908-10.546,10.362c-0.536,0.527,0.289,1.352,0.825,0.825c3.164-3.109,6.328-6.217,9.491-9.326
								c1.582-1.554,3.166-3.107,4.746-4.663c1.173-1.155,2.333-2.365,2.475-4.092c0.165-2.008-0.689-4.098-1.22-6.003
								c-0.562-2.015-1.138-4.025-1.728-6.032c-1.18-4.013-2.417-8.009-3.709-11.988c-5.161-15.887-11.213-31.485-18.109-46.7
								c-3.902-8.608-8.079-17.089-12.514-25.434C102.082,259.332,101.074,259.921,101.427,260.585L101.427,260.585z"/>
						</g>
					</g>
					<g>
						<g>
							<path style="fill:#FFFFFF;" d="M215.192,478.055c8.944-14.765,19.378-28.588,31.128-41.234
								c0.511-0.55-0.313-1.377-0.825-0.825c-11.816,12.716-22.317,26.623-31.31,41.47
								C213.794,478.11,214.803,478.697,215.192,478.055L215.192,478.055z"/>
						</g>
					</g>
					<g>
						<g>
							<path style="fill:#FFFFFF;" d="M238.024,465.731c4.851-8.139,10.236-15.948,16.133-23.364
								c0.463-0.582-0.358-1.413-0.825-0.825c-5.959,7.495-11.413,15.375-16.315,23.6
								C236.631,465.789,237.64,466.376,238.024,465.731L238.024,465.731z"/>
						</g>
					</g>
					<g>
						<path style="fill:#F2AD97;" d="M164.833,213.445c0,0-33.983,10.389-48.857,21.34c0,0,80.626,40.386,105.605-1.828
							c0,0-16.754-15.824-34.105-20.162C170.126,208.457,164.833,213.445,164.833,213.445z"/>
					</g>
					<g>
						<g>
							<path style="fill:#422038;" d="M352.611,357.372c-7.742,13.139-13.344,27.476-16.552,42.385
								c-0.158,0.732,0.967,1.045,1.125,0.31c3.189-14.817,8.74-29.048,16.435-42.106
								C354.001,357.313,352.993,356.725,352.611,357.372L352.611,357.372z"/>
						</g>
					</g>
					<g>
						<g>
							<path style="fill:#FFFFFF;" d="M193.051,308.78c1.501-6.436,3.45-12.756,5.835-18.92c0.271-0.701-0.857-1.004-1.125-0.31
								c-2.385,6.163-4.334,12.484-5.835,18.92C191.756,309.201,192.88,309.512,193.051,308.78L193.051,308.78z"/>
						</g>
					</g>
					<g>
						<g>
							<path style="fill:#FFFFFF;" d="M200.378,298.159c0.245-0.756,0.49-1.513,0.735-2.269c0.094-0.29-0.11-0.65-0.408-0.718
								c-0.32-0.073-0.617,0.096-0.718,0.408c-0.245,0.756-0.49,1.513-0.735,2.269c-0.094,0.29,0.11,0.65,0.407,0.718
								C199.98,298.639,200.277,298.47,200.378,298.159L200.378,298.159z"/>
						</g>
					</g>
					<g>
						<g>
							<path style="fill:#FFFFFF;" d="M298.43,256.113c3.961,4.123,7.107,8.988,9.217,14.304c0.274,0.69,1.403,0.389,1.125-0.31
								c-2.187-5.51-5.408-10.543-9.517-14.819C298.734,254.745,297.909,255.571,298.43,256.113L298.43,256.113z"/>
						</g>
					</g>
					<g>
						<g>
							<path style="fill:#FFFFFF;" d="M305.175,255.4c2.101,2.111,3.744,4.654,4.782,7.448c0.259,0.698,1.388,0.396,1.125-0.31
								c-1.11-2.986-2.834-5.703-5.082-7.963C305.47,254.041,304.645,254.866,305.175,255.4L305.175,255.4z"/>
						</g>
					</g>
					<g>
						<g>
							<path style="fill:#FFFFFF;" d="M339.819,328.093c-0.509-3.447-0.098-6.973,1.125-10.23c0.264-0.704-0.863-1.008-1.125-0.31
								c-1.301,3.465-1.665,7.193-1.125,10.85C338.804,329.143,339.928,328.828,339.819,328.093L339.819,328.093z"/>
						</g>
					</g>
				</g>
				<g>
					<g>
						<g>
							<path style="fill:#422038;" d="M497.198,156.042c-6.469,1.129-13.239-2.068-17.341-7.197
								c-4.101-5.129-5.757-11.904-5.615-18.47c0.074-3.452,0.665-7.028,2.638-9.862c1.972-2.834,5.598-4.726,8.934-3.836
								c-0.503-6.13,4.978-11.642,11.048-12.638c6.069-0.996,12.254,1.671,16.997,5.586c2.875-6.155,11.292-8.389,17.51-5.652
								c6.217,2.737,10.126,9.315,11.157,16.03c5.276-4.499,13.185-6.223,19.141-2.674c5.956,3.549,9.244,11.075,7.799,17.856
								c2.211-0.999,4.917,0.389,6.193,2.453c1.276,2.064,1.472,4.596,1.587,7.019c0.284,5.995-0.286,13.091-5.382,16.261
								c4.426,5.32,0.903,14.247-5.385,17.137c-6.288,2.89-13.798,1.137-19.928-2.075s-11.473-7.78-17.625-10.949
								c-9.621-4.956-20.655-6.229-31.411-7.421C497.728,155.641,496.983,158.012,497.198,156.042z"/>
						</g>
						<g>
							<polygon style="fill:#422038;" points="503.012,384.756 508.544,500 620.191,500 627.231,375.893 							"/>
						</g>
						<g>
							<path style="fill:#46B2A5;" d="M553.43,211.022c0,0-56.919,23.184-58.194,83.515c-1.276,60.331-1.969,93.784-1.969,93.784
								s103.369,12.345,143.563,0C636.829,388.321,670.735,226.6,553.43,211.022z"/>
						</g>
						<g>
							<g>
								<g>
									<g>
										<path style="fill:#F2AD97;" d="M498.793,180.414c6.233,20.648,21.107,24.783,36.505,17.726
											c15.398-7.057,30.387-16.33,18.106-43.554c-9.032-20.02-28.783-36.104-44.181-29.048
											C493.825,132.595,492.445,159.385,498.793,180.414z"/>
									</g>
									<g>
										<path style="fill:#ED8A85;" d="M511.708,165.244c0.042,0.373,0.087,0.746,0.135,1.118
											c0.173,1.342,0.389,2.699,0.972,3.911c0.583,1.212,1.583,2.279,2.909,2.671c2.272,0.671,4.971-1.025,5.62-3.298
											c0.521-1.825-0.081-3.71-0.735-5.443c-1.306-3.459-2.844-6.828-4.599-10.079c-1.578-2.921-4.119-2.855-4.474,0.836
											C511.205,158.397,511.326,161.842,511.708,165.244z"/>
									</g>
									<g>
										<path style="fill:#422038;" d="M525.607,134.327c-2.726-1.112-5.58-1.534-7.258,0.531c-0.925,1.139-0.882,3.08,0.32,3.917
											c0.558,0.388,1.256,0.497,1.928,0.586c3.241,0.426,6.512,0.618,9.78,0.573c0.423-0.006,0.859-0.018,1.248-0.186
											c0.39-0.167,0.727-0.528,0.743-0.954c0.021-0.582-0.519-1.008-1.008-1.317
											C530.018,136.631,527.856,135.244,525.607,134.327z"/>
									</g>
									<g>
										<g>
											<path style="fill:#422038;" d="M499.978,141.885c1.349-2.366,3.18-4.305,5.559-3.768
												c1.312,0.296,2.374,1.728,1.974,3.022c-0.185,0.601-0.63,1.079-1.067,1.528c-2.109,2.163-4.372,4.174-6.765,6.012
												c-0.31,0.238-0.633,0.478-1.009,0.58c-0.377,0.102-0.824,0.034-1.076-0.266c-0.343-0.41-0.192-1.027-0.011-1.531
												C498.078,146.079,498.864,143.837,499.978,141.885z"/>
										</g>
									</g>
									<g>
										<path style="fill:#ED6F6D;" d="M527.318,161.862c0.636,1.896,4.187,2.398,7.932,1.122
											c3.745-1.276,6.265-3.847,5.629-5.743c-0.636-1.896-4.187-2.398-7.932-1.122
											C529.203,157.396,526.682,159.967,527.318,161.862z"/>
									</g>
									<g>
										<path style="fill:#ED6F6D;" d="M494.232,171.461c0.636,1.896,4.256,2.375,8.085,1.07c3.829-1.305,6.418-3.899,5.783-5.795
											c-0.636-1.896-4.256-2.375-8.085-1.07C496.185,166.971,493.597,169.566,494.232,171.461z"/>
									</g>
									<g>
										<path style="fill:#F2AD97;" d="M544.45,151.053c2.71,6.007,8.177,11.294,13.598,8.81
											c5.422-2.485,8.746-11.801,6.036-17.808c-2.71-6.007-9.302-8.862-14.724-6.378
											C543.938,138.162,541.74,145.046,544.45,151.053z"/>
									</g>
									<g>
										<g>
											<path style="fill:#422038;" d="M557.549,140.389c-2.904-0.545-5.368,2.02-5.779,4.74
												c-0.264,1.748,0.096,3.505,0.681,5.153c0.539,1.517,1.158,3.237,2.346,4.371c0.403,0.384,1.015-0.226,0.611-0.611
												c-0.997-0.951-1.518-2.376-1.995-3.639c-0.533-1.414-0.935-2.91-0.864-4.433c0.112-2.398,2.054-5.257,4.77-4.747
												C557.863,141.325,558.096,140.492,557.549,140.389L557.549,140.389z"/>
										</g>
									</g>
									<g>
										<g>
											<path style="fill:#422038;" d="M552.472,147.741c2.402-0.014,4.696,1.316,5.897,3.393
												c0.279,0.481,1.026,0.047,0.747-0.436c-1.351-2.335-3.943-3.837-6.644-3.821
												C551.916,146.879,551.915,147.744,552.472,147.741L552.472,147.741z"/>
										</g>
									</g>
									<g>
										<g>
											<path style="fill:#422038;" d="M527.587,177.663c-0.024-0.015-0.047-0.031-0.069-0.047
												c0.032,0.026,0.028,0.022-0.011-0.01c-0.031-0.027-0.062-0.055-0.091-0.085c-0.039-0.039-0.076-0.08-0.11-0.123
												c0.048,0.062-0.021-0.033-0.029-0.046c-0.053-0.081-0.1-0.166-0.138-0.255c0.031,0.073-0.026-0.078-0.03-0.092
												c-0.013-0.04-0.024-0.08-0.034-0.121c-0.014-0.054-0.024-0.109-0.034-0.165c0.014,0.085-0.003-0.035-0.005-0.052
												c-0.008-0.098-0.008-0.197-0.002-0.294c0.002-0.028,0.004-0.056,0.007-0.084c-0.007,0.046-0.006,0.042,0.002-0.01
												c0.008-0.041,0.016-0.082,0.026-0.123c0.013-0.054,0.029-0.107,0.047-0.16c0.009-0.026,0.018-0.052,0.029-0.078
												c-0.014,0.033-0.015,0.036-0.003,0.008c0.041-0.088,0.089-0.171,0.144-0.251c0.018-0.024,0.016-0.023-0.005,0.005
												c0.017-0.022,0.035-0.043,0.054-0.063c0.033-0.036,0.067-0.071,0.103-0.104c0.149-0.136,0.352-0.243,0.537-0.306
												c0.482-0.165,0.963-0.184,1.473-0.202c0.233-0.008,0.432-0.193,0.432-0.432c0-0.228-0.198-0.44-0.432-0.432
												c-0.945,0.032-2.047,0.112-2.725,0.865c-0.547,0.607-0.699,1.522-0.429,2.288c0.162,0.46,0.447,0.846,0.856,1.116
												c0.195,0.129,0.478,0.039,0.592-0.155C527.866,178.044,527.783,177.792,527.587,177.663L527.587,177.663z"/>
										</g>
									</g>
									<g>
										<g>
											<path style="fill:#422038;" d="M528.751,169.645c-2.299,0.493-4.348,1.91-5.619,3.889
												c-1.399,2.177-1.727,4.946-0.988,7.411c0.159,0.532,0.994,0.305,0.834-0.23c-0.678-2.258-0.379-4.751,0.901-6.745
												c1.153-1.798,3.023-3.045,5.103-3.491C529.524,170.363,529.294,169.529,528.751,169.645L528.751,169.645z"/>
										</g>
									</g>
								</g>
								<g>
									<path style="fill:#F2AD97;" d="M555.942,158.748l9.105,56.052c0,0-10.571,10.676-20.686,7.059l-2.549-41.028
										L555.942,158.748z"/>
								</g>
								<g>
									<g>
										<path style="fill:#422038;" d="M542.198,195.007c8.438-4.603,13.813-13.909,13.691-23.507
											c-0.007-0.556-0.872-0.558-0.865,0c0.118,9.305-5.084,18.298-13.263,22.76
											C541.273,194.527,541.709,195.274,542.198,195.007L542.198,195.007z"/>
									</g>
								</g>
							</g>
							<g>
								<path style="fill:#422038;" d="M505.968,157.501c0,2.385-0.96,4.318-2.143,4.318c-1.184,0-2.143-1.933-2.143-4.318
									c0-2.385,0.96-4.318,2.143-4.318C505.008,153.183,505.968,155.116,505.968,157.501z"/>
							</g>
							<g>
								<path style="fill:#422038;" d="M529.279,151.629c0,2.587-1.041,4.684-2.325,4.684c-1.284,0-2.325-2.097-2.325-4.684
									s1.041-4.684,2.325-4.684C528.238,146.945,529.279,149.042,529.279,151.629z"/>
							</g>
							<g>
								<path style="fill:#FFFFFF;" d="M503.541,155.125c0,0.656-0.532,1.188-1.188,1.188c-0.656,0-1.188-0.532-1.188-1.188
									c0-0.656,0.532-1.188,1.188-1.188C503.01,153.938,503.541,154.469,503.541,155.125z"/>
							</g>
							<g>
								<path style="fill:#FFFFFF;" d="M526.696,148.646c0,0.712-0.577,1.288-1.288,1.288c-0.711,0-1.288-0.577-1.288-1.288
									c0-0.711,0.577-1.288,1.288-1.288C526.119,147.358,526.696,147.934,526.696,148.646z"/>
							</g>
						</g>
						<g>
							<g>
								<path style="fill:#FFFFFF;" d="M559.843,498.157c0.494-13.711,1.105-27.425,1.458-41.14
									c0.309-12.003,0.235-25.002-4.634-36.216c-2.111-4.863-5.521-9.469-10.795-11.064c-0.534-0.161-0.762,0.673-0.23,0.834
									c4.926,1.489,8.122,5.807,10.131,10.331c2.433,5.478,3.564,11.598,4.179,17.527c1.288,12.413,0.276,25.031-0.172,37.467
									c-0.267,7.42-0.534,14.841-0.802,22.261C558.959,498.713,559.823,498.712,559.843,498.157L559.843,498.157z"/>
							</g>
						</g>
						<g>
							<g>
								<path style="fill:#FFFFFF;" d="M551.508,423.397c-1.635-0.858-3.41-1.378-5.248-1.549c-0.233-0.022-0.432,0.214-0.432,0.432
									c0,0.252,0.199,0.411,0.432,0.432c1.679,0.156,3.319,0.648,4.811,1.431C551.564,424.401,552.002,423.655,551.508,423.397
									L551.508,423.397z"/>
							</g>
						</g>
						<g>
							<path style="fill:#B2B2B2;" d="M618.527,413.202c5.347-0.297,10.686-0.958,16.04-0.817s10.815,1.136,15.4,3.902
								c4.586,2.767,8.182,7.52,8.591,12.86c0.409,5.34-2.932,11.012-8.107,12.393c-3.746,1-7.72-0.239-11.235-1.874
								c-7.293-3.391-13.649-8.469-19.926-13.496c-3.404-2.726-7.216-5.397-10.152-8.64c-0.793-0.876-1.523-2.245-1.242-3.478
								c0.388-1.702,1.98-1.089,3.286-0.944C613.62,413.379,616.083,413.338,618.527,413.202z"/>
						</g>
						<g>
							<path style="fill:#B2B2B2;" d="M510.646,415.898c-2.768,4.585-5.232,9.366-8.366,13.71
								c-3.134,4.343-7.033,8.293-11.904,10.521c-4.87,2.228-10.824,2.52-15.465-0.152c-4.642-2.672-7.443-8.629-5.668-13.682
								c1.285-3.658,4.549-6.242,7.88-8.224c6.912-4.113,14.688-6.501,22.38-8.852c4.171-1.275,8.525-2.919,12.859-3.516
								c1.17-0.161,2.713,0.008,3.572,0.934c1.187,1.28-0.217,2.249-1.073,3.246C513.266,411.744,511.912,413.802,510.646,415.898z"
								/>
						</g>
						<g>
							<g>
								<path style="fill:#FFFFFF;" d="M602.243,400.233c2.037,12.402,8.44,23.894,17.908,32.159
									c0.417,0.365,1.031-0.245,0.611-0.611c-9.37-8.18-15.67-19.504-17.686-31.777
									C602.987,399.456,602.154,399.688,602.243,400.233L602.243,400.233z"/>
							</g>
						</g>
						<g>
							<g>
								<path style="fill:#F2AD97;" d="M725.127,338.354c-3.855,12.419-33.26,57.385-39.147,70.091
									c8.687,5.029,14.414,14.809,14.552,24.845c0.021,1.508-0.111,3.117-1.021,4.319c-0.91,1.202-2.848,1.724-3.949,0.694
									c-0.834-7.272-3.24-14.361-7.005-20.638c5.624,7.382,5.681,18.506,0.131,25.944c-0.495,0.664-1.217,1.294-1.984,1.707
									c-1.378,0.743-2.891-0.707-2.216-2.12c3.464-7.259,3.816-15.971,0.862-23.461c1.936,8.523-1.126,17.996-7.685,23.773
									c-2.399,2.113-5.461,3.826-8.768,2.874c-2.015-0.58-3.483-2.337-3.458-4.434c0.05-4.203,5.823-5.447,9.423-7.793
									c3.154-2.056,5.04-5.912,4.725-9.664c-0.777,5.369-5.154,10.028-10.465,11.138c-5.31,1.11-11.187-1.407-14.049-6.015
									c-0.778-1.253-1.372-2.784-0.285-4.218c0.757-0.999,2.023-1.459,3.276-1.41c4.607,0.182,7.387,5.379,13.261,1.991
									c1.97-1.136,3.573-2.902,4.168-5.097c1.598-5.893-3.961-11.436-9.673-11.279c-4.973,0.137-9.419,4.153-10.578,8.991
									c-0.432,1.804-0.635,3.973-2.592,4.642c-1.91,0.654-3.975-0.587-4.566-2.517c-2.142-6.996-0.242-15.473,5.449-20.163
									c4.952-4.081,12.801-4.613,17.753-0.531c3.052-6.969,6.104-13.938,9.156-20.907c6.504-14.852,11.182-29.343,15.389-45.002
									c-20.202-21.838-51.502-30.976-77.772-44.938c-3.556-1.89-7.208-4.04-9.274-7.496c9.535-11.518,21.094-22.091,34.352-29.006
									C645.011,251.695,733.013,312.95,725.127,338.354z"/>
							</g>
							<g>
								<g>
									<path style="fill:#422038;" d="M647.934,418.492c0.835-0.613,2.027-0.853,2.988-0.393c0.895,0.428,1.323,1.325,1.2,2.271
										c-0.054,0.415-0.285,0.899-0.635,1.157c-0.188,0.139-0.282,0.375-0.155,0.592c0.108,0.185,0.403,0.295,0.591,0.155
										c1.013-0.748,1.326-2.13,0.893-3.293c-0.483-1.298-1.763-2.02-3.123-1.977c-0.782,0.025-1.564,0.277-2.197,0.741
										c-0.188,0.138-0.282,0.375-0.155,0.591C647.451,418.522,647.745,418.63,647.934,418.492L647.934,418.492z"/>
								</g>
							</g>
							<g>
								<g>
									<path style="fill:#422038;" d="M655.054,429.18c0.519,1.031,1.839,1.052,2.744,0.561c0.485-0.263,0.879-0.683,1.075-1.201
										c0.249-0.654,0.174-1.429-0.065-2.074c-0.302-0.814-0.826-1.522-1.431-2.138c-0.39-0.398-1.002,0.214-0.611,0.611
										c0.755,0.769,1.587,1.895,1.364,3.044c-0.045,0.233-0.083,0.338-0.209,0.531c-0.057,0.088-0.249,0.279-0.338,0.342
										c-0.169,0.12-0.325,0.2-0.486,0.252c-0.208,0.069-0.299,0.087-0.491,0.089c-0.059,0.001-0.117-0.002-0.176-0.007
										c-0.052-0.004-0.001,0.001,0.008,0.002c-0.028-0.004-0.056-0.009-0.084-0.016c-0.048-0.012-0.095-0.025-0.142-0.04
										c-0.083-0.026-0.014,0.001-0.069-0.03c-0.042-0.024-0.084-0.047-0.124-0.075c-0.04-0.028-0.002-0.001,0.005,0.004
										c-0.027-0.023-0.051-0.048-0.077-0.072c-0.058-0.053-0.022-0.014-0.056-0.063c-0.035-0.05-0.064-0.104-0.091-0.158
										C655.55,428.246,654.804,428.683,655.054,429.18L655.054,429.18z"/>
								</g>
							</g>
							<g>
								<g>
									<path style="fill:#422038;" d="M668.73,446.447c1.173,0.414,2.126-0.729,2.273-1.788c0.085-0.616-0.066-1.187-0.458-1.67
										c-0.408-0.502-1.005-0.826-1.619-1.002c-0.715-0.205-1.479-0.235-2.217-0.18c-0.233,0.017-0.432,0.186-0.432,0.432
										c0,0.221,0.198,0.45,0.432,0.432c0.981-0.072,2.162-0.029,2.918,0.615c0.182,0.155,0.324,0.313,0.432,0.518
										c0.023,0.044,0.052,0.122,0.078,0.233c0.006,0.025,0.025,0.137,0.022,0.109c-0.002-0.019,0.006,0.098,0.007,0.134
										c0.001,0.05,0,0.1-0.003,0.15c-0.001,0.019-0.021,0.171-0.008,0.099c-0.018,0.106-0.044,0.211-0.077,0.314
										c-0.046,0.14-0.034,0.11-0.098,0.23c-0.023,0.043-0.047,0.086-0.073,0.127c-0.013,0.02-0.105,0.148-0.064,0.097
										c-0.066,0.083-0.141,0.159-0.223,0.226c0.061-0.05-0.065,0.041-0.085,0.053c-0.026,0.015-0.132,0.065-0.1,0.052
										c0.05-0.019-0.024,0.007-0.036,0.01c-0.029,0.007-0.061,0.015-0.09,0.023c-0.007,0.002-0.069,0.011-0.016,0.004
										c0.06-0.008-0.043,0.001-0.055,0.001c-0.032,0-0.16-0.014-0.078,0c-0.068-0.012-0.134-0.031-0.199-0.054
										c-0.22-0.078-0.473,0.088-0.532,0.302C668.363,446.154,668.509,446.369,668.73,446.447L668.73,446.447z"/>
								</g>
							</g>
							<g>
								<g>
									<path style="fill:#422038;" d="M689.112,443.453c0.496-0.464,0.321-1.274-0.152-1.684
										c-0.618-0.536-1.466-0.336-2.164-0.092c-0.213,0.074-0.377,0.299-0.302,0.532c0.068,0.211,0.303,0.382,0.532,0.302
										c0.142-0.05,0.285-0.098,0.43-0.139c0.073-0.02,0.146-0.038,0.219-0.054c0.036-0.008,0.082-0.024,0.118-0.022
										c-0.016,0.002-0.031,0.004-0.047,0.006c0.023-0.003,0.045-0.005,0.068-0.007c0.067-0.006,0.135-0.009,0.202-0.006
										c0.012,0,0.143,0.01,0.076,0.003c-0.067-0.006,0.061,0.013,0.074,0.016c0.033,0.008,0.066,0.017,0.098,0.028
										c0.014,0.005,0.029,0.01,0.043,0.015c0.031,0.012,0.014,0.005-0.051-0.021c0.034,0.028,0.089,0.054,0.127,0.076
										c0.034,0.02-0.08-0.075-0.016-0.01c0.019,0.019,0.039,0.037,0.058,0.056c0.015,0.017,0.029,0.038,0.045,0.052
										c-0.073-0.063-0.039-0.053-0.013-0.013c0.028,0.042,0.047,0.087,0.073,0.13c0.014,0.031,0.007,0.013-0.021-0.051
										c0.005,0.014,0.01,0.028,0.015,0.042c0.007,0.021,0.013,0.042,0.018,0.064c0.005,0.021,0.007,0.044,0.013,0.064
										c-0.036-0.117-0.008-0.073-0.007-0.029c0.001,0.024-0.003,0.05-0.001,0.074c0.002,0.029,0.025-0.12,0.002-0.022
										c-0.005,0.02-0.015,0.04-0.018,0.06c0.01-0.081,0.038-0.079,0.009-0.028c-0.01,0.018-0.025,0.035-0.034,0.053
										c0.047-0.058,0.055-0.071,0.026-0.038c-0.01,0.011-0.021,0.021-0.032,0.031c-0.165,0.155-0.168,0.457,0,0.611
										C688.678,443.616,688.935,443.619,689.112,443.453L689.112,443.453z"/>
								</g>
							</g>
							<g>
								<g>
									<path style="fill:#422038;" d="M700.247,433.931c-0.807-0.33-1.758-0.177-2.492,0.265c-0.777,0.468-1.307,1.234-1.41,2.138
										c-0.027,0.232,0.218,0.432,0.432,0.432c0.256,0,0.406-0.199,0.432-0.432c-0.01,0.084,0.006-0.036,0.009-0.053
										c0.009-0.048,0.02-0.096,0.033-0.144c0.021-0.081,0.047-0.161,0.078-0.238c0.011-0.028,0.01-0.026-0.003,0.007
										c0.011-0.025,0.023-0.051,0.036-0.075c0.019-0.037,0.038-0.074,0.059-0.11c0.042-0.073,0.088-0.142,0.135-0.211
										c0.049-0.072-0.027,0.027,0.035-0.045c0.027-0.032,0.054-0.064,0.083-0.095c0.057-0.062,0.117-0.122,0.179-0.178
										c0.031-0.028,0.064-0.055,0.096-0.083c0.072-0.061-0.025,0.013,0.047-0.036c0.076-0.052,0.151-0.104,0.231-0.15
										c0.182-0.106,0.252-0.137,0.417-0.191c0.08-0.026,0.161-0.049,0.244-0.068c0.041-0.009,0.082-0.016,0.124-0.025
										c0.128-0.027-0.079,0.003,0.051-0.008c0.167-0.014,0.333-0.018,0.5,0.002c-0.087-0.01,0.032,0.007,0.05,0.01
										c0.041,0.008,0.082,0.017,0.123,0.028c0.096,0.025,0.189,0.057,0.28,0.095c0.216,0.088,0.475-0.096,0.532-0.302
										C700.617,434.215,700.464,434.02,700.247,433.931L700.247,433.931z"/>
								</g>
							</g>
							<g>
								<g>
									<path style="fill:#422038;" d="M696.654,334.666c4.313-2.656,8.627-5.312,12.94-7.968c0.473-0.291,0.039-1.039-0.436-0.747
										c-4.313,2.656-8.627,5.312-12.94,7.968C695.744,334.211,696.178,334.959,696.654,334.666L696.654,334.666z"/>
								</g>
							</g>
						</g>
						<g>
							<g>
								<path style="fill:#F2AD97;" d="M410.997,342.035c3.855,12.419,33.26,57.385,39.147,70.091
									c-8.687,5.029-14.414,14.809-14.552,24.845c-0.021,1.508,0.111,3.117,1.021,4.319c0.91,1.202,2.848,1.724,3.949,0.694
									c0.834-7.273,3.24-14.361,7.005-20.638c-5.624,7.382-5.681,18.506-0.131,25.944c0.495,0.664,1.217,1.293,1.984,1.707
									c1.378,0.743,2.891-0.707,2.216-2.12c-3.464-7.259-3.816-15.971-0.862-23.461c-1.936,8.523,1.126,17.996,7.685,23.773
									c2.399,2.113,5.461,3.826,8.768,2.874c2.015-0.58,3.483-2.337,3.458-4.434c-0.05-4.203-5.823-5.447-9.423-7.793
									c-3.154-2.056-5.04-5.912-4.725-9.664c0.777,5.369,5.154,10.028,10.465,11.138c5.31,1.11,11.187-1.407,14.049-6.015
									c0.778-1.253,1.372-2.784,0.285-4.218c-0.757-0.999-2.023-1.459-3.276-1.41c-4.607,0.182-7.387,5.379-13.261,1.991
									c-1.97-1.136-3.573-2.902-4.168-5.097c-1.598-5.893,3.961-11.436,9.673-11.279c4.973,0.137,9.419,4.153,10.578,8.991
									c0.432,1.804,0.636,3.973,2.592,4.642c1.91,0.654,3.975-0.587,4.566-2.517c2.143-6.996,0.242-15.473-5.449-20.163
									c-4.952-4.081-12.801-4.613-17.753-0.531c-3.052-6.969-6.104-13.938-9.156-20.907
									c-6.504-14.852-11.182-29.343-15.389-45.002c20.202-21.838,51.502-30.976,77.772-44.938c3.556-1.89,7.208-4.04,9.274-7.496
									c-9.535-11.518-21.094-22.091-34.352-29.006C491.113,255.376,403.111,316.63,410.997,342.035z"/>
							</g>
							<g>
								<g>
									<path style="fill:#422038;" d="M488.626,421.426c-1.114-0.818-2.7-0.994-3.937-0.355c-1.156,0.597-1.72,1.907-1.527,3.168
										c0.106,0.696,0.473,1.298,1.038,1.715c0.188,0.139,0.482,0.031,0.591-0.155c0.129-0.22,0.033-0.452-0.155-0.591
										c-0.145-0.107-0.282-0.266-0.383-0.434c-0.119-0.199-0.176-0.355-0.227-0.595c-0.042-0.195-0.053-0.431-0.032-0.673
										c0.015-0.178,0.075-0.428,0.156-0.638c0.15-0.389,0.45-0.746,0.851-0.981c0.46-0.27,0.989-0.364,1.516-0.334
										c0.607,0.035,1.185,0.261,1.673,0.62c0.188,0.138,0.482,0.032,0.591-0.155
										C488.909,421.798,488.815,421.565,488.626,421.426L488.626,421.426z"/>
								</g>
							</g>
							<g>
								<g>
									<path style="fill:#422038;" d="M480.324,432.424c-0.021,0.041-0.042,0.082-0.067,0.121
										c-0.009,0.015-0.074,0.097-0.037,0.054c-0.032,0.038-0.068,0.072-0.105,0.105c-0.037,0.033-0.002,0.003,0.006-0.002
										c-0.022,0.016-0.046,0.032-0.069,0.046c-0.036,0.021-0.072,0.042-0.109,0.06c0.06-0.028-0.031,0.012-0.052,0.018
										c-0.04,0.013-0.081,0.023-0.122,0.033c-0.021,0.005-0.042,0.009-0.063,0.012c-0.071,0.013,0.059-0.005-0.013,0.002
										c-0.377,0.034-0.694-0.054-1.013-0.245c-0.293-0.175-0.542-0.449-0.634-0.748c-0.16-0.523-0.07-1.085,0.134-1.582
										c0.26-0.636,0.701-1.191,1.178-1.677c0.39-0.397-0.221-1.009-0.611-0.611c-1.018,1.037-1.948,2.507-1.556,4.022
										c0.268,1.035,1.385,1.766,2.437,1.711c0.604-0.031,1.164-0.329,1.443-0.882
										C481.32,432.365,480.574,431.926,480.324,432.424L480.324,432.424z"/>
								</g>
							</g>
							<g>
								<g>
									<path style="fill:#422038;" d="M467.164,449.294c-0.053,0.019-0.106,0.031-0.16,0.047c-0.07,0.02,0.039,0.006-0.06,0.007
										c-0.044,0-0.088,0-0.133-0.004c0.091,0.007-0.037-0.012-0.068-0.019c-0.024-0.006-0.047-0.015-0.071-0.023
										c0.016,0.005,0.074,0.037,0,0c-0.039-0.02-0.078-0.041-0.116-0.064c-0.02-0.013-0.113-0.083-0.053-0.034
										c-0.041-0.033-0.079-0.069-0.116-0.106c-0.097-0.099-0.085-0.086-0.148-0.182c-0.052-0.079-0.127-0.217-0.147-0.264
										c-0.013-0.03-0.063-0.177-0.083-0.253c-0.013-0.049-0.023-0.098-0.033-0.147c-0.017-0.085-0.007-0.033-0.004-0.013
										c-0.005-0.035-0.008-0.071-0.01-0.107c-0.007-0.1-0.005-0.199,0.003-0.299c0.006-0.072-0.011,0.06,0.001-0.012
										c0.003-0.021,0.007-0.042,0.012-0.063c0.013-0.062,0.03-0.123,0.05-0.183c0.003-0.009,0.034-0.091,0.016-0.047
										c-0.016,0.039,0.012-0.024,0.013-0.026c0.025-0.051,0.053-0.1,0.084-0.148c0.059-0.09,0.125-0.166,0.207-0.249
										c0.348-0.352,0.799-0.545,1.289-0.659c0.572-0.133,1.18-0.14,1.78-0.096c0.233,0.017,0.432-0.211,0.432-0.432
										c0-0.248-0.199-0.415-0.432-0.432c-1.266-0.093-2.741,0.057-3.68,1.008c-0.43,0.436-0.675,0.998-0.639,1.616
										c0.033,0.566,0.247,1.116,0.626,1.54c0.418,0.467,1.068,0.69,1.672,0.477c0.22-0.078,0.367-0.295,0.302-0.532
										C467.637,449.383,467.385,449.216,467.164,449.294L467.164,449.294z"/>
								</g>
							</g>
							<g>
								<g>
									<path style="fill:#422038;" d="M447.624,446.523c-0.014-0.013-0.072-0.086-0.026-0.021
										c0.047,0.068-0.006-0.013-0.014-0.026c-0.025-0.046-0.002-0.069,0.009,0.028c-0.002-0.018-0.013-0.041-0.017-0.059
										c-0.019-0.08,0.008,0.001,0.002,0.033c0.004-0.022-0.003-0.051-0.002-0.074c0.001-0.048,0.03-0.099-0.006,0.018
										c0.006-0.02,0.008-0.043,0.013-0.064c0.005-0.022,0.012-0.043,0.019-0.064c0.024-0.072,0.012-0.014-0.011,0.019
										c0.03-0.043,0.048-0.096,0.077-0.14c0.024-0.036,0.07-0.057-0.013,0.013c0.016-0.014,0.031-0.037,0.046-0.052
										c0.016-0.017,0.032-0.033,0.049-0.049c0.011-0.01,0.023-0.021,0.035-0.03c-0.055,0.041-0.069,0.052-0.042,0.032
										c0.034-0.02,0.1-0.049,0.127-0.076c-0.021,0.008-0.041,0.017-0.062,0.025c0.018-0.007,0.035-0.013,0.053-0.019
										c0.032-0.011,0.065-0.02,0.098-0.028c0.03-0.007,0.068-0.02,0.099-0.019c-0.114-0.004,0.008,0.002,0.035,0.001
										c0.073-0.003,0.146-0.001,0.219,0.006c0.026,0.002,0.125-0.003,0.02,0.001c0.032-0.001,0.07,0.012,0.102,0.018
										c0.079,0.016,0.158,0.035,0.236,0.057c0.145,0.04,0.288,0.089,0.43,0.139c0.214,0.075,0.482-0.085,0.532-0.302
										c0.055-0.241-0.073-0.452-0.302-0.532c-0.698-0.244-1.546-0.445-2.164,0.092c-0.473,0.41-0.648,1.221-0.152,1.685
										c0.165,0.155,0.45,0.176,0.611,0C447.778,446.966,447.8,446.688,447.624,446.523L447.624,446.523z"/>
								</g>
							</g>
							<g>
								<g>
									<path style="fill:#422038;" d="M436.107,438.445c0.085-0.035,0.171-0.065,0.26-0.089c0.04-0.011,0.081-0.021,0.122-0.029
										c0.014-0.003,0.13-0.022,0.087-0.017c-0.039,0.005,0.092-0.008,0.109-0.009c0.042-0.002,0.083-0.004,0.125-0.004
										c0.084,0,0.167,0.006,0.25,0.013c0.094,0.008-0.05-0.013,0.051,0.008c0.041,0.008,0.083,0.015,0.124,0.025
										c0.082,0.018,0.164,0.041,0.244,0.068c0.04,0.013,0.08,0.028,0.12,0.042c0.091,0.032-0.027-0.016,0.053,0.022
										c0.083,0.039,0.165,0.08,0.245,0.127c0.18,0.105,0.245,0.153,0.374,0.269c0.063,0.057,0.123,0.116,0.179,0.178
										c0.028,0.031,0.055,0.063,0.083,0.095c0.085,0.098-0.038-0.061,0.035,0.045c0.047,0.069,0.094,0.138,0.135,0.211
										c0.021,0.036,0.04,0.073,0.059,0.11c0.006,0.013,0.054,0.117,0.025,0.049c0.032,0.077,0.059,0.157,0.081,0.237
										c0.013,0.047,0.024,0.095,0.034,0.143c0.003,0.017,0.023,0.157,0.013,0.074c0.026,0.232,0.18,0.432,0.432,0.432
										c0.213,0,0.459-0.199,0.432-0.432c-0.103-0.904-0.634-1.67-1.41-2.138c-0.734-0.442-1.685-0.595-2.492-0.265
										c-0.216,0.088-0.369,0.288-0.302,0.532C435.631,438.348,435.889,438.534,436.107,438.445L436.107,438.445z"/>
								</g>
							</g>
							<g>
								<g>
									<path style="fill:#422038;" d="M439.907,337.6c-4.313-2.656-8.627-5.312-12.94-7.968c-0.475-0.292-0.91,0.455-0.436,0.747
										c4.313,2.656,8.627,5.312,12.94,7.968C439.946,338.639,440.38,337.892,439.907,337.6L439.907,337.6z"/>
								</g>
							</g>
						</g>
						<g>
							<g>
								<path style="fill:#FFFFFF;" d="M508.939,427.266c6.267-8.215,8.953-18.78,7.456-28.993c-0.08-0.549-0.914-0.315-0.834,0.23
									c1.463,9.987-1.253,20.309-7.369,28.327C507.855,427.271,508.605,427.703,508.939,427.266L508.939,427.266z"/>
							</g>
						</g>
						<g>
							<path style="fill:#46B2A5;" d="M583.323,219.342c0,0,54.972,19.335,91.182,49.016c0,0-23.743,39.278-41.292,40.766
								c-17.549,1.488-37.666-24.147-37.666-24.147L583.323,219.342z"/>
						</g>
						<g>
							<path style="fill:#46B2A5;" d="M538.519,219.342c0,0-41.887,20.512-84.635,55.755c0,0,13.458,37.563,41.351,41.568
								l56.873-38.491L538.519,219.342z"/>
						</g>
						<g>
							<path style="fill:#F2AD97;" d="M543.991,215.897l-19.871,11.166c0,0,14.921,34.031,64.926-5.583
								c0,0-18.14-8.685-26.689-8.936S543.991,215.897,543.991,215.897z"/>
						</g>
						<g>
							<g>
								<path style="fill:#287C70;" d="M639.466,306.944c-13.305-17.082-26.561-35.185-31.644-56.622
									c-1.415-5.968-2.132-12.077-2.005-18.213c0.011-0.557-0.853-0.557-0.865,0c-0.462,22.321,10.134,42.811,22.723,60.565
									c3.589,5.062,7.367,9.986,11.18,14.881C639.196,307.993,639.804,307.378,639.466,306.944L639.466,306.944z"/>
							</g>
						</g>
						<g>
							<g>
								<path style="fill:#287C70;" d="M496.203,315.878c7.594-19.785,12.433-40.595,14.337-61.702
									c0.54-5.984,0.837-11.988,0.908-17.996c0.007-0.557-0.858-0.557-0.865,0c-0.248,21.193-3.437,42.317-9.48,62.633
									c-1.691,5.684-3.609,11.299-5.734,16.835C495.17,316.168,496.005,316.393,496.203,315.878L496.203,315.878z"/>
							</g>
						</g>
						<g>
							<path style="fill:#FFFFFF;" d="M494.633,323.054c0,0,59.094,23.138,146.64,22.698c0,0-0.723,19.603-3.359,36.487
								c0,0-89.141-1.204-143.956-27.049L494.633,323.054z"/>
						</g>
						<g>
							<g>
								<path style="fill:#287C70;" d="M538.008,310.06c11.607,18.048,26.767,33.734,44.393,45.971
									c5.031,3.493,10.262,6.692,15.655,9.595c0.49,0.264,0.927-0.482,0.436-0.747c-18.795-10.117-35.53-23.94-49.024-40.48
									c-3.849-4.718-7.42-9.655-10.714-14.776C538.454,309.157,537.705,309.59,538.008,310.06L538.008,310.06z"/>
							</g>
						</g>
						<g>
							<g>
								<path style="fill:#287C70;" d="M569.895,328.71c9.861,10.367,20.588,19.876,32.053,28.434
									c0.446,0.333,0.878-0.417,0.436-0.747c-11.405-8.513-22.07-17.987-31.878-28.299
									C570.122,327.695,569.511,328.307,569.895,328.71L569.895,328.71z"/>
							</g>
						</g>
						<g>
							<g>
								<path style="fill:#6D4F65;" d="M493.8,144.223c-5.182-3.068-10.156-8.411-8.63-14.931c0.639-2.73,2.485-5.039,5.269-5.732
									c2.487-0.618,5.345,0.066,6.823,2.27c0.253,0.377,0.916,0.366,1.028-0.134c0.79-3.524,5.571-5.366,8.458-3.081
									c0.237,0.188,0.562,0.237,0.795,0c2.842-2.878,6.349-6.067,10.618-6.285c3.371-0.172,7.341,1.929,7.66,5.593
									c0.034,0.387,0.465,0.75,0.846,0.486c4.389-3.044,11.216-0.311,12.284,4.926c0.085,0.419,0.659,0.537,0.94,0.248
									c1.365-1.401,3.654-1.766,5.291-0.585c1.625,1.172,2.029,3.472,1.118,5.204c-0.337,0.64,0.633,1.209,0.971,0.568
									c1.167-2.217,0.677-5.147-1.399-6.665c-2.067-1.511-5.027-1.11-6.776,0.684c0.313,0.083,0.627,0.165,0.94,0.248
									c-1.205-5.912-8.975-9.038-13.936-5.598c0.282,0.162,0.564,0.324,0.846,0.486c-0.345-3.954-4.065-6.454-7.807-6.707
									c-4.945-0.334-9.152,3.324-12.39,6.604c0.265,0,0.53,0,0.795,0c-3.507-2.775-9.344-0.856-10.338,3.577
									c0.343-0.045,0.685-0.09,1.028-0.134c-1.588-2.368-4.42-3.339-7.19-2.957c-3.057,0.422-5.427,2.483-6.537,5.332
									c-2.864,7.35,2.762,14.025,8.726,17.556C493.857,145.564,494.423,144.592,493.8,144.223L493.8,144.223z"/>
							</g>
						</g>
						<g>
							<g>
								<path style="fill:#6D4F65;" d="M567.479,153.297c1.061,0.798,1.096,2.364,0.578,3.484c-0.623,1.348-1.941,2.256-3.14,3.046
									c-0.285,0.188-0.399,0.63-0.114,0.883c3.317,2.947,2.52,8.204-1.493,10.064c-0.656,0.304-0.085,1.274,0.568,0.971
									c4.652-2.156,5.546-8.432,1.721-11.831c-0.038,0.294-0.076,0.589-0.114,0.883c1.591-1.049,3.314-2.321,3.853-4.251
									c0.437-1.564,0.024-3.233-1.291-4.222C567.468,151.891,566.906,152.867,567.479,153.297L567.479,153.297z"/>
							</g>
						</g>
					</g>
					<g>
						<g>
							<g>
								<path style="fill:#9DA09F;" d="M659.014,356.264c0.33-1.006,0.62-2.026,0.869-3.057c0.525-2.176,0.827-4.611-0.405-6.623
									c-0.647-1.056-1.839-1.955-3.097-1.875c-0.549,0.035-1.054,0.251-1.529,0.49c-3.679,1.853-6.363,5.417-7.383,9.219
									c-0.227,0.845-0.372,1.763-0.032,2.607c0.397,0.983,1.4,1.691,2.458,2.037c1.058,0.346,2.18,0.386,3.282,0.423
									c-1.609,0.128-3.175,0.753-4.191,1.884c-1.016,1.131-1.409,2.791-0.823,4.242c0.297,0.734,0.865,1.419,1.642,1.716
									c1.19,0.456,2.492-0.1,3.428-0.837c1.541-1.212,2.569-2.895,3.441-4.606C657.598,360.074,658.38,358.194,659.014,356.264z"
									/>
							</g>
							<g>
								<path style="fill:#9DA09F;" d="M658.529,356.077c0.432-0.967,0.902-1.917,1.411-2.847c1.074-1.964,2.487-3.97,4.751-4.631
									c1.189-0.347,2.676-0.212,3.553,0.693c0.383,0.395,0.612,0.894,0.803,1.39c1.479,3.844,1.07,8.288-0.73,11.789
									c-0.4,0.778-0.91,1.556-1.729,1.952c-0.954,0.461-2.173,0.311-3.189-0.144c-1.016-0.455-1.874-1.18-2.714-1.893
									c1.106,1.177,1.845,2.692,1.837,4.212c-0.008,1.52-0.833,3.014-2.242,3.694c-0.713,0.344-1.594,0.469-2.369,0.167
									c-1.188-0.462-1.777-1.749-1.976-2.924c-0.327-1.933,0.044-3.871,0.548-5.723
									C657.017,359.849,657.701,357.932,658.529,356.077z"/>
							</g>
						</g>
						<g>
							<g>
								<path style="fill:#9DA09F;" d="M475.799,347.236c0.33-1.006,0.62-2.026,0.869-3.057c0.525-2.176,0.827-4.611-0.405-6.623
									c-0.647-1.056-1.839-1.955-3.097-1.874c-0.549,0.035-1.054,0.251-1.529,0.49c-3.679,1.853-6.363,5.417-7.383,9.219
									c-0.227,0.845-0.372,1.763-0.032,2.607c0.396,0.983,1.4,1.691,2.458,2.037c1.058,0.346,2.18,0.386,3.282,0.423
									c-1.61,0.128-3.176,0.753-4.191,1.884c-1.016,1.131-1.409,2.791-0.823,4.242c0.297,0.734,0.866,1.419,1.642,1.716
									c1.19,0.456,2.492-0.1,3.428-0.837c1.541-1.212,2.569-2.895,3.441-4.606C474.384,351.046,475.166,349.166,475.799,347.236z"
									/>
							</g>
							<g>
								<path style="fill:#9DA09F;" d="M475.315,347.049c0.432-0.967,0.902-1.917,1.411-2.847c1.074-1.964,2.487-3.97,4.751-4.631
									c1.189-0.347,2.676-0.212,3.553,0.694c0.383,0.395,0.612,0.894,0.803,1.39c1.479,3.845,1.07,8.288-0.73,11.789
									c-0.4,0.778-0.91,1.556-1.729,1.952c-0.954,0.462-2.173,0.311-3.189-0.144c-1.016-0.455-1.874-1.18-2.714-1.893
									c1.106,1.177,1.845,2.692,1.837,4.212c-0.008,1.52-0.833,3.014-2.242,3.694c-0.713,0.344-1.594,0.469-2.369,0.167
									c-1.188-0.462-1.777-1.749-1.976-2.924c-0.327-1.933,0.044-3.871,0.548-5.723
									C473.802,350.821,474.487,348.904,475.315,347.049z"/>
							</g>
						</g>
						<g>
							<g>
								<path style="fill:#9DA09F;" d="M717.421,401.723c-0.288-0.701-0.605-1.39-0.949-2.066c-0.726-1.427-1.694-2.891-3.299-3.412
									c-0.843-0.273-1.909-0.208-2.555,0.421c-0.282,0.274-0.456,0.626-0.603,0.977c-1.139,2.717-0.941,5.903,0.272,8.445
									c0.27,0.565,0.617,1.132,1.195,1.432c0.673,0.35,1.547,0.268,2.283-0.035c0.736-0.304,1.365-0.804,1.981-1.296
									c-0.815,0.818-1.376,1.886-1.403,2.973c-0.027,1.087,0.531,2.173,1.525,2.689c0.502,0.261,1.13,0.369,1.69,0.17
									c0.859-0.305,1.308-1.213,1.475-2.049c0.275-1.375,0.051-2.768-0.27-4.104C718.422,404.452,717.974,403.066,717.421,401.723
									z"/>
							</g>
							<g>
								<path style="fill:#9DA09F;" d="M717.071,401.846c-0.215-0.727-0.4-1.462-0.556-2.204c-0.329-1.567-0.494-3.314,0.43-4.727
									c0.485-0.741,1.356-1.359,2.254-1.275c0.392,0.037,0.748,0.202,1.083,0.383c2.591,1.403,4.435,4.008,5.083,6.748
									c0.144,0.609,0.229,1.269-0.033,1.865c-0.304,0.695-1.037,1.179-1.801,1.404c-0.764,0.225-1.567,0.23-2.356,0.233
									c1.148,0.126,2.254,0.606,2.957,1.436c0.702,0.83,0.948,2.026,0.498,3.05c-0.228,0.518-0.649,0.996-1.21,1.192
									c-0.861,0.301-1.779-0.125-2.433-0.671c-1.076-0.899-1.776-2.125-2.363-3.366
									C718.002,404.6,717.483,403.239,717.071,401.846z"/>
							</g>
						</g>
						<g>
							<g>
								<path style="fill:#9DA09F;" d="M666.749,232.014c-0.288-0.701-0.604-1.39-0.949-2.066c-0.726-1.427-1.694-2.891-3.299-3.412
									c-0.843-0.273-1.909-0.208-2.555,0.421c-0.282,0.274-0.456,0.626-0.603,0.977c-1.139,2.717-0.941,5.903,0.272,8.444
									c0.27,0.565,0.617,1.132,1.195,1.432c0.673,0.35,1.547,0.268,2.283-0.035c0.736-0.304,1.365-0.804,1.981-1.296
									c-0.815,0.818-1.376,1.886-1.403,2.973c-0.027,1.087,0.531,2.173,1.525,2.689c0.502,0.261,1.13,0.369,1.69,0.17
									c0.859-0.305,1.308-1.213,1.475-2.049c0.275-1.375,0.051-2.768-0.27-4.104C667.751,234.743,667.302,233.358,666.749,232.014
									z"/>
							</g>
							<g>
								<path style="fill:#9DA09F;" d="M666.399,232.138c-0.215-0.726-0.401-1.462-0.556-2.204c-0.329-1.567-0.494-3.314,0.43-4.727
									c0.485-0.741,1.356-1.359,2.254-1.275c0.392,0.037,0.748,0.202,1.082,0.383c2.591,1.403,4.435,4.008,5.084,6.748
									c0.144,0.609,0.229,1.269-0.033,1.865c-0.304,0.695-1.037,1.179-1.801,1.404c-0.764,0.225-1.567,0.23-2.356,0.233
									c1.148,0.126,2.255,0.606,2.957,1.436c0.702,0.83,0.948,2.026,0.498,3.05c-0.228,0.518-0.649,0.996-1.21,1.192
									c-0.86,0.301-1.779-0.124-2.433-0.671c-1.076-0.899-1.775-2.125-2.363-3.366
									C667.33,234.891,666.811,233.531,666.399,232.138z"/>
							</g>
						</g>
						<g>
							<g>
								<path style="fill:#9DA09F;" d="M426.789,411.211c-0.288-0.701-0.605-1.39-0.949-2.066c-0.726-1.427-1.694-2.891-3.299-3.412
									c-0.842-0.274-1.909-0.208-2.555,0.42c-0.282,0.274-0.456,0.626-0.603,0.977c-1.139,2.717-0.941,5.903,0.272,8.444
									c0.27,0.565,0.617,1.132,1.195,1.432c0.673,0.35,1.547,0.268,2.283-0.035c0.736-0.304,1.365-0.804,1.981-1.296
									c-0.815,0.818-1.376,1.886-1.403,2.972c-0.026,1.087,0.531,2.173,1.525,2.689c0.502,0.261,1.13,0.369,1.69,0.17
									c0.859-0.305,1.308-1.213,1.475-2.049c0.275-1.375,0.051-2.768-0.27-4.104C427.79,413.94,427.342,412.555,426.789,411.211z"
									/>
							</g>
							<g>
								<path style="fill:#9DA09F;" d="M426.439,411.335c-0.215-0.726-0.401-1.462-0.556-2.204c-0.329-1.567-0.494-3.314,0.43-4.727
									c0.485-0.741,1.356-1.359,2.254-1.275c0.392,0.037,0.748,0.202,1.082,0.383c2.591,1.403,4.435,4.008,5.084,6.748
									c0.144,0.609,0.228,1.269-0.033,1.865c-0.304,0.695-1.037,1.179-1.801,1.404c-0.764,0.225-1.567,0.23-2.356,0.233
									c1.148,0.126,2.255,0.606,2.957,1.436c0.702,0.83,0.948,2.026,0.498,3.05c-0.228,0.518-0.649,0.996-1.21,1.192
									c-0.861,0.301-1.779-0.125-2.434-0.671c-1.076-0.899-1.775-2.125-2.363-3.366
									C427.37,414.089,426.851,412.728,426.439,411.335z"/>
							</g>
						</g>
					</g>
				</g>
				<g>
					<g>
						<g>
							<g>
								<path style="fill:#FCA127;" d="M325.251,106.573c-0.566,0-1.133-0.216-1.565-0.648c-0.864-0.864-0.864-2.266,0-3.13
									l12.06-12.06c0.864-0.864,2.266-0.864,3.13,0c0.864,0.864,0.864,2.266,0,3.13l-12.059,12.06
									C326.384,106.357,325.818,106.573,325.251,106.573z"/>
							</g>
							<g>
								<path style="fill:#FCA127;" d="M306.113,125.711c-0.566,0-1.133-0.216-1.565-0.649c-0.864-0.864-0.864-2.266,0-3.13
									l12.059-12.06c0.864-0.864,2.266-0.864,3.13,0c0.864,0.864,0.864,2.266,0,3.13l-12.059,12.06
									C307.246,125.495,306.68,125.711,306.113,125.711z"/>
							</g>
						</g>
						<g>
							<g>
								<path style="fill:#FCA127;" d="M318.172,106.573c-0.566,0-1.133-0.216-1.565-0.648l-12.059-12.06
									c-0.864-0.864-0.864-2.266,0-3.13c0.864-0.864,2.266-0.864,3.13,0l12.059,12.06c0.864,0.864,0.864,2.266,0,3.13
									C319.305,106.357,318.739,106.573,318.172,106.573z"/>
							</g>
							<g>
								<path style="fill:#FCA127;" d="M337.311,125.711c-0.566,0-1.133-0.216-1.565-0.649l-12.06-12.06
									c-0.864-0.864-0.864-2.266,0-3.13c0.864-0.864,2.266-0.864,3.13,0l12.059,12.06c0.864,0.864,0.864,2.266,0,3.13
									C338.443,125.495,337.877,125.711,337.311,125.711z"/>
							</g>
						</g>
					</g>
					<g>
						<g>
							<g>
								<path style="fill:#FCA127;" d="M377.855,138.87c-0.457,0-0.914-0.174-1.263-0.523c-0.697-0.697-0.697-1.828,0-2.525
									l9.728-9.729c0.697-0.697,1.828-0.697,2.525,0c0.697,0.697,0.697,1.828,0,2.525l-9.728,9.729
									C378.769,138.696,378.312,138.87,377.855,138.87z"/>
							</g>
							<g>
								<path style="fill:#FCA127;" d="M362.416,154.309c-0.457,0-0.914-0.174-1.263-0.523c-0.697-0.697-0.697-1.828,0-2.525
									l9.728-9.729c0.697-0.697,1.828-0.697,2.525,0c0.697,0.697,0.697,1.828,0,2.525l-9.729,9.729
									C363.33,154.135,362.873,154.309,362.416,154.309z"/>
							</g>
						</g>
						<g>
							<g>
								<path style="fill:#FCA127;" d="M372.145,138.87c-0.457,0-0.914-0.174-1.263-0.523l-9.728-9.729
									c-0.697-0.697-0.697-1.828,0-2.525c0.697-0.697,1.828-0.697,2.525,0l9.729,9.729c0.697,0.697,0.697,1.828,0,2.525
									C373.059,138.696,372.602,138.87,372.145,138.87z"/>
							</g>
							<g>
								<path style="fill:#FCA127;" d="M387.584,154.309c-0.457,0-0.914-0.174-1.263-0.523l-9.728-9.729
									c-0.697-0.697-0.697-1.828,0-2.525c0.697-0.697,1.828-0.697,2.525,0l9.728,9.729c0.697,0.697,0.697,1.828,0,2.525
									C388.498,154.135,388.041,154.309,387.584,154.309z"/>
							</g>
						</g>
					</g>
					<g>
						<g>
							<g>
								<path style="fill:#FCA127;" d="M84.387,161.058c-0.579,0-1.158-0.221-1.6-0.663c-0.884-0.883-0.884-2.316,0-3.199
									l12.327-12.326c0.883-0.884,2.315-0.884,3.199,0c0.884,0.883,0.884,2.316,0,3.199l-12.327,12.326
									C85.546,160.838,84.966,161.058,84.387,161.058z"/>
							</g>
							<g>
								<path style="fill:#FCA127;" d="M64.825,180.62c-0.579,0-1.158-0.221-1.6-0.663c-0.884-0.883-0.884-2.316,0-3.199
									l12.327-12.327c0.883-0.884,2.316-0.884,3.199,0c0.884,0.883,0.884,2.316,0,3.199l-12.327,12.327
									C65.983,180.4,65.404,180.62,64.825,180.62z"/>
							</g>
						</g>
						<g>
							<g>
								<path style="fill:#FCA127;" d="M77.152,161.058c-0.579,0-1.158-0.221-1.6-0.663L63.226,148.07
									c-0.884-0.883-0.884-2.316,0-3.199c0.883-0.884,2.315-0.884,3.199,0l12.327,12.326c0.884,0.883,0.884,2.316,0,3.199
									C78.31,160.838,77.731,161.058,77.152,161.058z"/>
							</g>
							<g>
								<path style="fill:#FCA127;" d="M96.714,180.62c-0.579,0-1.158-0.221-1.6-0.663l-12.327-12.327
									c-0.884-0.883-0.884-2.316,0-3.199c0.883-0.884,2.316-0.884,3.199,0l12.327,12.327c0.884,0.883,0.884,2.316,0,3.199
									C97.872,180.4,97.293,180.62,96.714,180.62z"/>
							</g>
						</g>
					</g>
					<g>
						<g>
							<g>
								<path style="fill:#FCA127;" d="M630.212,108.066c-0.383,0-0.767-0.146-1.059-0.438c-0.585-0.585-0.585-1.533,0-2.118
									l8.159-8.16c0.584-0.585,1.533-0.585,2.117,0c0.585,0.585,0.585,1.533,0,2.118l-8.159,8.16
									C630.978,107.92,630.594,108.066,630.212,108.066z"/>
							</g>
							<g>
								<path style="fill:#FCA127;" d="M617.262,121.015c-0.383,0-0.767-0.146-1.058-0.438c-0.585-0.585-0.585-1.533,0-2.118
									l8.159-8.16c0.584-0.585,1.533-0.585,2.117,0c0.585,0.585,0.585,1.533,0,2.118l-8.159,8.16
									C618.029,120.869,617.645,121.015,617.262,121.015z"/>
							</g>
						</g>
						<g>
							<g>
								<path style="fill:#FCA127;" d="M625.422,108.066c-0.384,0-0.767-0.146-1.059-0.438l-8.159-8.16
									c-0.585-0.585-0.585-1.533,0-2.118c0.585-0.586,1.534-0.584,2.117,0l8.159,8.16c0.585,0.585,0.585,1.533,0,2.118
									C626.188,107.92,625.804,108.066,625.422,108.066z"/>
							</g>
							<g>
								<path style="fill:#FCA127;" d="M638.371,121.015c-0.384,0-0.767-0.146-1.059-0.438l-8.159-8.16
									c-0.585-0.585-0.585-1.533,0-2.118c0.585-0.586,1.534-0.584,2.117,0l8.159,8.16c0.585,0.585,0.585,1.533,0,2.118
									C639.137,120.869,638.754,121.015,638.371,121.015z"/>
							</g>
						</g>
					</g>
					<g>
						<g>
							<g>
								<path style="fill:#FCA127;" d="M678.243,173.354c-0.37,0-0.739-0.141-1.021-0.423c-0.564-0.564-0.564-1.479,0-2.043
									l7.871-7.871c0.564-0.564,1.478-0.564,2.043,0c0.564,0.564,0.564,1.479,0,2.043l-7.871,7.871
									C678.982,173.214,678.613,173.354,678.243,173.354z"/>
							</g>
							<g>
								<path style="fill:#FCA127;" d="M665.753,185.845c-0.37,0-0.739-0.141-1.021-0.423c-0.565-0.565-0.565-1.479,0-2.043
									l7.871-7.871c0.564-0.564,1.479-0.564,2.043,0c0.564,0.564,0.564,1.479,0,2.043l-7.871,7.871
									C666.492,185.704,666.123,185.845,665.753,185.845z"/>
							</g>
						</g>
						<g>
							<g>
								<path style="fill:#FCA127;" d="M673.624,173.354c-0.37,0-0.739-0.141-1.021-0.423l-7.871-7.871
									c-0.565-0.564-0.565-1.479,0-2.043c0.564-0.564,1.479-0.564,2.043,0l7.871,7.871c0.564,0.564,0.564,1.479,0,2.043
									C674.363,173.214,673.994,173.354,673.624,173.354z"/>
							</g>
							<g>
								<path style="fill:#FCA127;" d="M686.114,185.845c-0.37,0-0.739-0.141-1.021-0.423l-7.871-7.871
									c-0.564-0.564-0.564-1.479,0-2.043c0.564-0.564,1.478-0.564,2.043,0l7.871,7.871c0.564,0.564,0.564,1.479,0,2.043
									C686.853,185.704,686.484,185.845,686.114,185.845z"/>
							</g>
						</g>
					</g>
					<g>
						<path style="fill:#FCA127;" d="M116.942,175.125c-4.885,0-8.858-3.974-8.858-8.858c0-4.885,3.974-8.858,8.858-8.858
							c4.885,0,8.858,3.974,8.858,8.858C125.8,171.152,121.827,175.125,116.942,175.125z M116.942,160.184
							c-3.354,0-6.083,2.729-6.083,6.083c0,3.354,2.729,6.083,6.083,6.083c3.354,0,6.083-2.729,6.083-6.083
							C123.025,162.913,120.296,160.184,116.942,160.184z"/>
					</g>
					<g>
						<path style="fill:#FCA127;" d="M91.516,197.918c-2.076,0-3.765-1.689-3.765-3.765c0-2.076,1.689-3.765,3.765-3.765
							c2.076,0,3.765,1.689,3.765,3.765C95.281,196.229,93.592,197.918,91.516,197.918z M91.516,193.163
							c-0.546,0-0.99,0.444-0.99,0.99c0,0.546,0.444,0.99,0.99,0.99c0.545,0,0.989-0.444,0.989-0.99
							C92.506,193.607,92.062,193.163,91.516,193.163z"/>
					</g>
					<g>
						<path style="fill:#FCA127;" d="M634.701,76.407c-5.942,0-10.777-4.834-10.777-10.777c0-5.943,4.835-10.777,10.777-10.777
							c5.943,0,10.778,4.834,10.778,10.777C645.479,71.573,640.644,76.407,634.701,76.407z M634.701,57.848
							c-4.291,0-7.781,3.491-7.781,7.782s3.49,7.782,7.781,7.782c4.291,0,7.782-3.491,7.782-7.782S638.992,57.848,634.701,57.848z"
							/>
					</g>
					<g>
						<path style="fill:#FCA127;" d="M670.051,103.986c-2.971,0-5.389-2.417-5.389-5.388c0-2.971,2.418-5.389,5.389-5.389
							c2.972,0,5.39,2.417,5.39,5.389C675.441,101.569,673.023,103.986,670.051,103.986z M670.051,96.204
							c-1.319,0-2.393,1.074-2.393,2.394c0,1.319,1.073,2.393,2.393,2.393c1.32,0,2.394-1.074,2.394-2.393
							C672.445,97.278,671.372,96.204,670.051,96.204z"/>
					</g>
					<g>
						<path style="fill:#FCA127;" d="M626.865,197.027c-10.472,0-18.991-8.519-18.991-18.99c0-10.472,8.52-18.991,18.991-18.991
							c10.472,0,18.99,8.519,18.99,18.991C645.855,188.508,637.337,197.027,626.865,197.027z M626.865,161.935
							c-8.879,0-16.103,7.224-16.103,16.102c0,8.879,7.224,16.102,16.103,16.102c8.878,0,16.102-7.223,16.102-16.102
							C642.966,169.158,635.743,161.935,626.865,161.935z"/>
					</g>
					<g>
						<path style="fill:#FCA127;" d="M355.484,109.1c-5,0-9.068-4.068-9.068-9.069c0-5,4.068-9.068,9.068-9.068
							s9.068,4.068,9.068,9.068C364.552,105.032,360.484,109.1,355.484,109.1z M355.484,93.679c-3.503,0-6.353,2.85-6.353,6.353
							c0,3.503,2.85,6.353,6.353,6.353c3.503,0,6.353-2.85,6.353-6.353C361.837,96.529,358.987,93.679,355.484,93.679z"/>
					</g>
					<g>
						<path style="fill:#FCA127;" d="M341.698,77.117c-9.817,0-17.805-7.987-17.805-17.805c0-9.818,7.987-17.805,17.805-17.805
							c9.818,0,17.805,7.987,17.805,17.805C359.503,69.129,351.516,77.117,341.698,77.117z M341.698,44.222
							c-8.32,0-15.089,6.769-15.089,15.089c0,8.32,6.769,15.089,15.089,15.089c8.32,0,15.089-6.769,15.089-15.089
							C356.787,50.991,350.018,44.222,341.698,44.222z"/>
					</g>
					<g>
						<g>
							<path style="fill:#FFFFFF;" d="M326.261,166.44c3.073,0,6.017-2.702,5.875-5.875c-0.143-3.183-2.581-5.875-5.875-5.875
								c-3.073,0-6.017,2.702-5.875,5.875C320.528,163.748,322.967,166.44,326.261,166.44L326.261,166.44z"/>
						</g>
					</g>
					<g>
						<g>
							<path style="fill:#FFFFFF;" d="M285.565,195.31c2.413,0,2.417-3.75,0-3.75C283.152,191.56,283.148,195.31,285.565,195.31
								L285.565,195.31z"/>
						</g>
					</g>
					<g>
						<g>
							<path style="fill:#FFFFFF;" d="M435.459,243.691c-0.062,0.218-0.124,0.437-0.185,0.655c-0.03,0.104-0.059,0.209-0.089,0.313
								c-0.169,0.598-0.25,1.123-0.283,1.809c-0.029,0.774,0.132,1.495,0.484,2.165c0.227,0.697,0.614,1.299,1.162,1.808
								c0.509,0.548,1.112,0.935,1.808,1.162c0.67,0.352,1.391,0.513,2.165,0.484c0.498-0.067,0.996-0.134,1.494-0.201
								c0.952-0.267,1.778-0.749,2.48-1.445c0.293-0.379,0.586-0.758,0.879-1.137c0.508-0.876,0.764-1.822,0.767-2.836
								c-0.012-0.261-0.046-0.52-0.102-0.777c0-0.266-0.036-0.524-0.108-0.775c-0.008-0.029-0.016-0.057-0.024-0.085
								c-0.015-0.052-0.03-0.104-0.044-0.157c-0.031-0.109-0.062-0.218-0.093-0.327c-0.062-0.218-0.124-0.436-0.185-0.655
								c-0.176-0.418-0.353-0.836-0.529-1.254c-0.33-0.612-0.781-1.103-1.352-1.473c-0.327-0.325-0.714-0.55-1.158-0.675
								c-0.626-0.329-1.3-0.479-2.023-0.452c-0.465,0.063-0.93,0.125-1.396,0.188c-0.418,0.176-0.836,0.353-1.254,0.529
								c-0.612,0.33-1.103,0.781-1.473,1.352C435.935,242.413,435.622,243.008,435.459,243.691L435.459,243.691z"/>
						</g>
					</g>
					<g>
						<g>
							<path style="fill:#FFFFFF;" d="M460.437,157.793c-0.745-0.822-1.489-1.643-2.234-2.464c-0.249-0.275-0.748-0.338-1.06-0.137
								c-0.344,0.222-0.48,0.591-0.402,0.988c0.222,1.126,0.445,2.251,0.667,3.377c0.116,0.586,0.692,1.135,1.266,1.266
								c0.476,0.108,0.967,0.069,1.397-0.183c0.393-0.23,0.712-0.644,0.833-1.083C461.081,158.909,460.877,158.279,460.437,157.793
								L460.437,157.793z"/>
						</g>
					</g>
					<g>
						<g>
							<path style="fill:#FFFFFF;" d="M631.478,224.791c3.302,0,6.465-2.904,6.313-6.313c-0.153-3.42-2.774-6.313-6.313-6.313
								c-3.302,0-6.465,2.903-6.313,6.313C625.319,221.898,627.939,224.791,631.478,224.791L631.478,224.791z"/>
						</g>
					</g>
					<g>
						<g>
							<path style="fill:#FFFFFF;" d="M600.54,215.833c0.237,0.12,0.473,0.241,0.709,0.362c-0.428-0.557-0.856-1.113-1.284-1.67
								c0.008,0.051,0.016,0.103,0.024,0.154c0.113,0.269,0.227,0.537,0.34,0.806c0.212,0.393,0.502,0.709,0.869,0.947
								c0.21,0.209,0.459,0.354,0.744,0.434c0.402,0.211,0.835,0.308,1.3,0.291c0.299-0.04,0.598-0.08,0.897-0.12
								c0.269-0.113,0.537-0.227,0.806-0.34c0.393-0.212,0.709-0.502,0.947-0.869c0.298-0.326,0.499-0.708,0.604-1.147
								c0.042-0.297,0.129-0.712,0.121-0.897c-0.039-0.293-0.079-0.587-0.118-0.881c-0.001-0.005-0.001-0.011-0.002-0.016
								c-0.113-0.269-0.227-0.537-0.34-0.806c-0.212-0.393-0.502-0.709-0.869-0.947c-0.211-0.209-0.459-0.354-0.744-0.434
								c-0.402-0.211-0.835-0.308-1.3-0.291c-0.299,0.04-0.598,0.08-0.897,0.12c-0.269,0.113-0.537,0.227-0.806,0.34
								c-0.393,0.212-0.709,0.502-0.947,0.869c-0.298,0.326-0.499,0.708-0.604,1.147c-0.008,0.051-0.016,0.103-0.024,0.154
								c0.428-0.557,0.856-1.113,1.284-1.67c-0.236,0.121-0.473,0.241-0.709,0.362c-0.357,0.211-0.641,0.495-0.852,0.852
								c-0.215,0.37-0.323,0.77-0.324,1.199c0.001,0.429,0.109,0.828,0.324,1.199C599.899,215.338,600.183,215.622,600.54,215.833
								L600.54,215.833z"/>
						</g>
					</g>
					<g>
						<g>
							<path style="fill:#FFFFFF;" d="M655.26,202.311c-0.181-0.472-0.362-0.944-0.542-1.416c-0.046-0.109-0.092-0.219-0.139-0.328
								c-0.086-0.16-0.205-0.289-0.354-0.386c-0.086-0.085-0.187-0.144-0.303-0.177c-0.164-0.086-0.341-0.126-0.53-0.118
								c-0.122,0.016-0.244,0.033-0.366,0.049c-0.109,0.046-0.219,0.092-0.328,0.139c-0.16,0.086-0.289,0.205-0.386,0.354
								c-0.121,0.133-0.203,0.289-0.246,0.468c-0.181,0.472-0.362,0.944-0.542,1.416c-0.092,0.343-0.092,0.687,0,1.03
								c0.092,0.328,0.258,0.613,0.498,0.855c0.131,0.101,0.261,0.202,0.392,0.303c0.302,0.175,0.628,0.263,0.978,0.264
								c0.267,0.01,0.516-0.046,0.746-0.167c0.24-0.078,0.448-0.212,0.624-0.401c0.24-0.242,0.406-0.527,0.498-0.855
								C655.352,202.998,655.352,202.654,655.26,202.311L655.26,202.311z"/>
						</g>
					</g>
					<g>
						<g>
							<path style="fill:#FFFFFF;" d="M305.894,445.677c0.68,0.026,1.314-0.116,1.902-0.425c0.612-0.199,1.142-0.539,1.589-1.021
								c0.481-0.447,0.822-0.977,1.021-1.589c0.309-0.588,0.451-1.222,0.425-1.902c-0.059-0.438-0.118-0.875-0.176-1.313
								c-0.235-0.836-0.658-1.563-1.27-2.179c-0.333-0.257-0.666-0.515-0.999-0.772c-0.77-0.447-1.601-0.671-2.492-0.674
								c-0.68-0.026-1.314,0.116-1.902,0.425c-0.612,0.199-1.142,0.539-1.589,1.021c-0.481,0.447-0.822,0.977-1.021,1.589
								c-0.309,0.588-0.451,1.223-0.425,1.902c0.059,0.438,0.117,0.875,0.176,1.313c0.235,0.836,0.658,1.563,1.27,2.179
								c0.333,0.257,0.666,0.515,0.999,0.772C304.172,445.449,305.002,445.674,305.894,445.677L305.894,445.677z"/>
						</g>
					</g>
					<g>
						<g>
							<path style="fill:#FFFFFF;" d="M291.826,171.992c0.808,0.031,1.563-0.138,2.262-0.506c0.728-0.237,1.358-0.642,1.89-1.214
								c0.573-0.532,0.977-1.162,1.214-1.89c0.368-0.7,0.536-1.454,0.506-2.262c-0.07-0.52-0.14-1.041-0.21-1.561
								c-0.279-0.995-0.782-1.858-1.51-2.591c-0.396-0.306-0.792-0.612-1.188-0.918c-0.916-0.531-1.904-0.798-2.964-0.802
								c-0.808-0.031-1.563,0.138-2.262,0.506c-0.728,0.237-1.358,0.641-1.89,1.214c-0.573,0.532-0.977,1.162-1.214,1.89
								c-0.368,0.7-0.536,1.454-0.506,2.262c0.07,0.52,0.14,1.041,0.21,1.561c0.279,0.995,0.782,1.858,1.51,2.591
								c0.396,0.306,0.792,0.612,1.188,0.918C289.778,171.722,290.766,171.989,291.826,171.992L291.826,171.992z"/>
						</g>
					</g>
					<g>
						<g>
							<path style="fill:#FCA127;" d="M113.391,138.389c3.956,0,7.745-3.478,7.563-7.563c-0.183-4.097-3.323-7.562-7.563-7.562
								c-3.956,0-7.745,3.478-7.563,7.562C106.012,134.923,109.152,138.389,113.391,138.389L113.391,138.389z"/>
						</g>
					</g>
					<g>
						<g>
							<path style="fill:#FCA127;" d="M285.063,45.578c-0.083-0.022-0.166-0.043-0.249-0.065c-0.407-0.128-0.814-0.146-1.221-0.055
								c-0.408,0.018-0.787,0.14-1.139,0.363c-0.357,0.193-0.643,0.455-0.859,0.789c-0.271,0.296-0.453,0.643-0.548,1.042
								c-0.036,0.271-0.073,0.543-0.109,0.814c0.002,0.553,0.141,1.068,0.418,1.546c0.16,0.207,0.319,0.413,0.479,0.62
								c0.382,0.38,0.833,0.642,1.351,0.788c0.269,0.07,0.525,0.141,0.814,0.141c0.289,0,0.545-0.071,0.814-0.141
								c0.399-0.095,0.746-0.277,1.042-0.548c0.333-0.216,0.596-0.502,0.789-0.859c0.224-0.351,0.345-0.731,0.363-1.139
								c0.091-0.407,0.073-0.814-0.055-1.221c-0.103-0.244-0.206-0.488-0.309-0.732c-0.272-0.46-0.639-0.826-1.099-1.099
								c-0.244-0.103-0.488-0.206-0.732-0.309c-0.543-0.146-1.085-0.146-1.628,0c-0.059,0.015-0.119,0.031-0.178,0.047
								c-0.015,0.004-0.029,0.008-0.044,0.012c-0.007,0.002-0.015,0.004-0.022,0.006c-0.01,0.003-0.948,0.398-0.96,0.404
								c-0.27,0.208-0.54,0.417-0.81,0.625c-0.39,0.362-0.666,0.791-0.827,1.287c-0.181,0.312-0.272,0.648-0.273,1.009
								c-0.095,0.354-0.095,0.709,0,1.063c0.024,0.532,0.182,1.028,0.475,1.487c0.209,0.27,0.417,0.54,0.626,0.809
								c0.27,0.208,0.54,0.417,0.81,0.625c0.318,0.134,0.637,0.269,0.955,0.403c0.532,0.167,1.063,0.19,1.595,0.071
								c0.361-0.001,0.697-0.092,1.009-0.273c0.339-0.095,0.633-0.267,0.883-0.514c0.3-0.178,0.54-0.417,0.717-0.718
								c0.353-0.386,0.592-0.84,0.716-1.36c0.048-0.354,0.095-0.709,0.143-1.063c-0.048-0.354-0.095-0.709-0.143-1.063
								c-0.134-0.319-0.269-0.637-0.403-0.955c-0.251-0.466-0.595-0.84-1.03-1.122C286.037,45.94,285.584,45.701,285.063,45.578
								L285.063,45.578z"/>
						</g>
					</g>
					<g>
						<g>
							<path style="fill:#FCA127;" d="M103.832,62.203c-0.186-0.011-0.373-0.022-0.559-0.033c1.696,0.702,3.391,1.405,5.087,2.107
								c-0.244-0.255-0.52-0.473-0.827-0.656c-0.724-0.662-1.573-1.109-2.548-1.341c-0.996-0.312-1.991-0.357-2.987-0.134
								c-0.997,0.045-1.925,0.342-2.785,0.889c-0.505,0.39-1.011,0.781-1.516,1.171c-0.73,0.678-1.247,1.482-1.549,2.411
								c-0.469,0.893-0.684,1.855-0.645,2.886c-0.039,1.031,0.176,1.993,0.645,2.886c0.302,0.929,0.818,1.732,1.549,2.411
								c0.505,0.39,1.011,0.781,1.516,1.171c0.86,0.548,1.788,0.844,2.785,0.889c0.996,0.223,1.991,0.178,2.987-0.134
								c0.597-0.252,1.193-0.504,1.789-0.755c1.126-0.666,2.021-1.562,2.687-2.687c0.252-0.596,0.504-1.193,0.755-1.789
								c0.269-0.71,0.353-1.42,0.25-2.131c-0.327,1.21-0.655,2.42-0.982,3.631c0.096-0.146,0.193-0.292,0.289-0.437
								c0.622-1.073,0.936-2.231,0.939-3.473c-0.004-1.242-0.317-2.4-0.939-3.473c-0.612-1.034-1.435-1.857-2.469-2.469
								C106.232,62.52,105.074,62.207,103.832,62.203L103.832,62.203z"/>
						</g>
					</g>
					<g>
						<g>
							<path style="fill:#FCA127;" d="M695.652,133.63c1.033,0.039,1.996-0.176,2.89-0.646c0.93-0.302,1.734-0.819,2.414-1.551
								c0.731-0.679,1.248-1.484,1.551-2.414c0.47-0.894,0.685-1.857,0.646-2.89c-0.089-0.665-0.179-1.329-0.268-1.994
								c-0.356-1.271-0.999-2.374-1.929-3.309c-0.506-0.391-1.012-0.782-1.518-1.173c-1.17-0.678-2.432-1.02-3.785-1.024
								c-1.033-0.039-1.996,0.176-2.89,0.646c-0.93,0.302-1.734,0.819-2.414,1.551c-0.731,0.679-1.248,1.484-1.551,2.414
								c-0.47,0.894-0.685,1.857-0.646,2.89c0.089,0.665,0.179,1.329,0.268,1.994c0.356,1.271,0.999,2.374,1.929,3.309
								c0.506,0.391,1.012,0.782,1.518,1.173C693.037,133.285,694.298,133.626,695.652,133.63L695.652,133.63z"/>
						</g>
					</g>
					<g>
						<g>
							<path style="fill:#FCA127;" d="M726.567,192.659c0.053-0.303,0.105-0.607,0.158-0.91c0.025-0.142,0.049-0.283,0.074-0.425
								c0.041-0.235,0.091-0.482,0.102-0.72c0.008-0.183-0.063-0.505-0.102-0.737c-0.076-0.444-0.151-0.888-0.227-1.333
								c-0.054-0.317-0.336-0.571-0.615-0.689c-0.323-0.136-0.635-0.104-0.946,0.054c-0.445,0.225-0.89,0.451-1.335,0.676
								c-0.407,0.206-0.701,0.523-1.007,0.845c-0.198,0.208-0.395,0.416-0.593,0.624c-0.642,0.675-0.988,1.696-0.691,2.615
								c0.216,0.667,0.619,1.245,1.235,1.606c0.308,0.196,0.642,0.303,0.999,0.319c0.357,0.08,0.715,0.064,1.072-0.048
								c0.455-0.128,0.851-0.358,1.186-0.691C726.209,193.51,726.439,193.114,726.567,192.659L726.567,192.659z"/>
						</g>
					</g>
					<g>
						<g>
							<path style="fill:#FCA127;" d="M54.005,256.533c0.929,0.035,1.796-0.159,2.601-0.581c0.837-0.272,1.561-0.737,2.172-1.396
								c0.658-0.611,1.123-1.336,1.396-2.172c0.423-0.804,0.616-1.671,0.581-2.601c-0.08-0.598-0.161-1.196-0.241-1.794
								c-0.321-1.144-0.899-2.136-1.736-2.979c-0.455-0.352-0.911-0.704-1.366-1.055c-1.053-0.611-2.188-0.918-3.407-0.922
								c-0.929-0.035-1.796,0.159-2.601,0.581c-0.837,0.272-1.561,0.737-2.172,1.396c-0.658,0.611-1.123,1.335-1.396,2.172
								c-0.423,0.804-0.616,1.671-0.581,2.601c0.08,0.598,0.161,1.196,0.241,1.794c0.321,1.144,0.899,2.136,1.736,2.979
								c0.455,0.352,0.911,0.704,1.366,1.055C51.651,256.222,52.787,256.529,54.005,256.533L54.005,256.533z"/>
						</g>
					</g>
					<g>
						<g>
							<path style="fill:#FCA127;" d="M30.003,176.229c0.378-0.606,0.756-1.212,1.133-1.818c0.088-0.209,0.176-0.418,0.265-0.627
								c0.109-0.349,0.125-0.698,0.047-1.047c-0.001-0.237-0.061-0.458-0.179-0.662c-0.106-0.325-0.287-0.607-0.543-0.845
								c-0.177-0.137-0.354-0.274-0.531-0.411c-0.209-0.088-0.418-0.176-0.627-0.265c-0.349-0.109-0.698-0.125-1.047-0.047
								c-0.349,0.016-0.675,0.12-0.976,0.311c-0.606,0.378-1.212,0.756-1.818,1.133c-0.47,0.278-0.843,0.652-1.121,1.121
								c-0.283,0.487-0.425,1.013-0.427,1.577c0.037,0.277,0.074,0.554,0.112,0.831c0.149,0.529,0.416,0.989,0.804,1.379
								c0.283,0.305,0.618,0.52,1.006,0.646c0.372,0.196,0.774,0.285,1.204,0.269c0.564-0.002,1.09-0.144,1.577-0.427
								C29.351,177.073,29.725,176.699,30.003,176.229L30.003,176.229z"/>
						</g>
					</g>
				</g>
			</g>
		</g>
		<g>
			<g>
				<g>
					<path style="fill:#422038;" d="M481.409,187.942c-2.991-1.289-5.982-2.578-8.974-3.867c-2.547-1.098-5.198-2.079-7.625-3.431
						c-2.03-1.131-4.358-2.933-4.414-5.478c-0.044-2.036,1.49-4.736,3.842-4.185c0.108-0.391,0.216-0.783,0.324-1.174
						c-11.034-1.574-21.59-5.589-30.874-11.757c-0.655-0.435-1.265,0.619-0.615,1.051c9.361,6.219,20.039,10.293,31.164,11.88
						c0.752,0.107,1.107-0.99,0.324-1.174c-2.2-0.516-4.028,0.908-4.872,2.877c-1.053,2.455-0.312,4.932,1.502,6.798
						c2.194,2.258,5.334,3.362,8.161,4.581c3.814,1.644,7.628,3.287,11.441,4.931C481.507,189.301,482.128,188.252,481.409,187.942
						L481.409,187.942z"/>
				</g>
			</g>
			<g>
				<g>
					<path style="fill:#422038;" d="M458.098,136.113c-8.087-5.639-15.068-12.752-20.558-20.94
						c-0.121,0.298-0.243,0.596-0.364,0.894c2.975-0.888,5.95-1.777,8.924-2.665c0.358-0.107,0.586-0.557,0.364-0.894
						c-6.601-9.995-15.081-18.63-24.95-25.416c-0.647-0.445-1.257,0.61-0.615,1.051c9.691,6.664,18.032,15.166,24.513,24.98
						c0.121-0.298,0.242-0.596,0.364-0.894c-2.975,0.888-5.95,1.777-8.924,2.665c-0.356,0.106-0.589,0.559-0.364,0.894
						c5.611,8.369,12.73,15.614,20.995,21.377C458.127,137.614,458.737,136.559,458.098,136.113L458.098,136.113z"/>
				</g>
			</g>
			<g>
				<g>
					<path style="fill:#422038;" d="M567.997,109.88c1.891-8.205,4.945-16.08,9.089-23.41c-0.229,0.093-0.458,0.187-0.688,0.28
						c1.356,0.529,2.504,1.343,3.485,2.415c0.281,0.307,0.746,0.185,0.956-0.123c6.044-8.879,11.791-17.956,17.23-27.218
						c0.398-0.677-0.654-1.291-1.051-0.615c-5.439,9.262-11.185,18.339-17.23,27.218c0.319-0.041,0.637-0.082,0.956-0.123
						c-1.132-1.236-2.463-2.12-4.022-2.728c-0.244-0.095-0.565,0.063-0.688,0.28c-4.193,7.417-7.298,15.398-9.212,23.701
						C566.648,110.319,567.821,110.644,567.997,109.88L567.997,109.88z"/>
				</g>
			</g>
			<g>
				<g>
					<path style="fill:#422038;" d="M585.822,163.225c3.481-5.18,7.932-9.621,13.119-13.091c-0.278-0.073-0.555-0.146-0.833-0.218
						c1.314,1.873,2.256,3.895,2.832,6.11c0.091,0.348,0.575,0.6,0.894,0.364c7.424-5.51,14.703-11.213,21.83-17.103
						c0.605-0.5-0.261-1.357-0.861-0.861c-7.046,5.824-14.242,11.464-21.583,16.913c0.298,0.121,0.596,0.243,0.894,0.364
						c-0.6-2.306-1.586-4.45-2.955-6.401c-0.18-0.257-0.541-0.414-0.833-0.218c-5.366,3.59-9.955,8.17-13.556,13.528
						C584.332,163.263,585.387,163.873,585.822,163.225L585.822,163.225z"/>
				</g>
			</g>
			<g>
				<g>
					<path style="fill:#422038;" d="M548.599,97.858c0.745-6.302,2.342-12.464,4.716-18.348c-0.339,0.09-0.678,0.179-1.017,0.269
						c1.253,1.302,2.506,2.604,3.759,3.906c0.259,0.269,0.781,0.226,0.956-0.123c4.007-7.978,8.014-15.956,12.022-23.934
						c0.351-0.698-0.699-1.316-1.051-0.614c-4.007,7.978-8.015,15.956-12.022,23.934c0.319-0.041,0.638-0.082,0.956-0.123
						c-1.253-1.302-2.506-2.604-3.759-3.906c-0.347-0.36-0.855-0.135-1.018,0.269c-2.418,5.993-4,12.255-4.759,18.671
						C547.29,98.635,548.508,98.628,548.599,97.858L548.599,97.858z"/>
				</g>
			</g>
		</g>
	</g>
</g>
</svg>
